<?xml version="1.0" encoding="UTF-8"?>
<svg xmlns="http://www.w3.org/2000/svg" viewBox="0 0 1200 600">
  <defs>
    <style>
      .cls-1 {
        fill: #7fadef;
      }

      .cls-2 {
        fill: #fff;
      }

      .cls-3 {
        fill: #fafafa;
      }

      .cls-4 {
        opacity: .5;
      }

      .cls-5 {
        fill: #aa6550;
      }

      .cls-6 {
        fill: #f5f5f5;
      }

      .cls-7 {
        fill: #455a64;
      }

      .cls-8 {
        fill: #46ce7d;
      }

      .cls-9 {
        fill: #60c660;
      }

      .cls-10 {
        fill: #e0e0e0;
      }

      .cls-11 {
        fill: #e8505b;
      }

      .cls-12 {
        fill: #5163e5;
      }

      .cls-13 {
        fill: #b78876;
      }

      .cls-14 {
        opacity: .4;
      }

      .cls-15 {
        fill: #eb996e;
      }

      .cls-16 {
        opacity: .3;
      }

      .cls-17 {
        fill: #ffbe9d;
      }

      .cls-18 {
        fill: #ebebeb;
      }

      .cls-19 {
        fill: #6886dd;
      }

      .cls-20 {
        fill: #263238;
      }
    </style>
  </defs>
  <g id="Background_Complete" data-name="Background Complete">
    <g>
      <circle class="cls-10" cx="1016.98" cy="135.54" r="39.81" transform="translate(36.36 437.21) rotate(-24.69)"/>
      <path class="cls-3" d="m1035.05,136.77s-.5.09-1.41.12c-1.04.03-2.34.06-3.87.1-3.28.06-7.86.1-13.02.11h-.34s0-.34,0-.34c0-.83,0-1.7,0-2.58,0-5.77.04-10.99.1-14.77.04-1.78.08-3.28.11-4.47.04-1.06.09-1.64.13-1.64s.09.58.13,1.64c.03,1.2.07,2.7.11,4.47.06,3.78.1,9,.1,14.77,0,.88,0,1.76,0,2.58l-.34-.34c5.16.01,9.74.05,13.02.11,1.53.04,2.82.08,3.87.1.91.04,1.41.08,1.41.12Z"/>
      <path class="cls-3" d="m1016.88,102.27c.19,0,.34,1.5.34,3.34s-.15,3.34-.34,3.34-.34-1.5-.34-3.34.15-3.34.34-3.34Z"/>
      <path class="cls-3" d="m1035.02,107.64c.13.13-.8,1.29-2.09,2.57-1.29,1.29-2.44,2.22-2.57,2.09-.13-.13.8-1.29,2.09-2.57s2.44-2.22,2.57-2.09Z"/>
      <path class="cls-3" d="m1045.62,119.23c.09.17-1.16.97-2.7,1.91-1.54.94-2.82,1.67-2.93,1.52-.11-.15,1-1.15,2.58-2.11,1.57-.96,2.97-1.48,3.06-1.32Z"/>
      <path class="cls-3" d="m1051.84,136.42c0,.19-2.04.34-4.56.34s-4.56-.15-4.56-.34,2.04-.34,4.56-.34,4.56.15,4.56.34Z"/>
      <path class="cls-3" d="m988.6,135.81c0,.19-1.93.34-4.31.34s-4.31-.15-4.31-.34,1.93-.34,4.31-.34,4.31.15,4.31.34Z"/>
      <path class="cls-3" d="m993.07,148.61c.12.14-1.31,1.5-3.2,3.02-1.89,1.52-3.52,2.64-3.63,2.48s1.32-1.5,3.2-3.02c1.88-1.51,3.51-2.63,3.63-2.48Z"/>
      <path class="cls-3" d="m1004.11,158.51c.16.12-.89,1.8-2.14,3.88-1.26,2.08-2.25,3.8-2.43,3.71-.17-.08.56-1.95,1.83-4.07,1.27-2.12,2.58-3.64,2.73-3.53Z"/>
      <path class="cls-3" d="m1016.88,171.28c-.19,0-.34-2.04-.34-4.56s.15-4.56.34-4.56.34,2.04.34,4.56-.15,4.56-.34,4.56Z"/>
      <path class="cls-3" d="m1036.53,165.21c-.1.15-1.91-.84-3.82-2.51-1.91-1.66-3.15-3.32-3.01-3.44.15-.13,1.59,1.29,3.46,2.92,1.87,1.63,3.47,2.87,3.36,3.03Z"/>
      <path class="cls-3" d="m1045.76,155.27c-.13.13-1.51-1.03-3.08-2.59-1.57-1.57-2.73-2.95-2.59-3.08.13-.13,1.51,1.03,3.08,2.59,1.57,1.57,2.73,2.95,2.59,3.08Z"/>
      <path class="cls-3" d="m992.66,123.55c-.13.13-1.36-.87-2.73-2.24-1.37-1.37-2.37-2.59-2.24-2.73s1.35.87,2.73,2.24,2.37,2.59,2.24,2.73Z"/>
      <path class="cls-3" d="m1004.04,111.56c-.13.13-1.33-.84-2.68-2.18-1.35-1.34-2.33-2.54-2.19-2.67.13-.13,1.33.84,2.68,2.18,1.35,1.34,2.33,2.54,2.19,2.67Z"/>
    </g>
    <g>
      <rect class="cls-18" x="161.68" y="11.69" width="158.2" height="284.2"/>
      <rect class="cls-3" x="168" y="19.93" width="143.93" height="267.49"/>
      <polygon class="cls-6" points="311.93 23.08 168 206.16 168 19.93 311.93 19.93 311.93 23.08"/>
      <rect class="cls-18" x="168" y="96.88" width="147.06" height="2.85"/>
      <rect class="cls-18" x="168" y="160.58" width="147.06" height="2.85"/>
      <rect class="cls-18" x="168" y="224.28" width="147.06" height="2.85"/>
      <rect class="cls-18" x="141.61" y="193.02" width="196.7" height="7.27" transform="translate(43.31 436.62) rotate(-90)"/>
      <rect class="cls-18" x="195.71" y="19.93" width="3.29" height="78.37"/>
      <rect class="cls-18" x="224.13" y="19.93" width="3.29" height="78.37"/>
      <rect class="cls-18" x="252.54" y="19.93" width="3.29" height="78.37"/>
      <rect class="cls-18" x="280.95" y="19.93" width="3.29" height="78.37"/>
      <rect class="cls-6" x="154.99" y="6.87" width="6.69" height="290.78"/>
      <polygon class="cls-10" points="326.57 298.45 319.88 295.89 319.88 6.87 326.57 6.87 326.57 298.45"/>
      <rect class="cls-10" x="154.99" y="3.93" width="171.59" height="7.75"/>
      <rect class="cls-10" x="150.24" y="299.4" width="180.86" height="7.22"/>
      <polygon class="cls-18" points="319.88 295.89 331.1 299.4 150.24 299.4 161.68 295.89 319.88 295.89"/>
    </g>
  </g>
  <g id="Floor">
    <path class="cls-20" d="m885.52,584.18c0,.19-127.72.34-285.24.34s-285.27-.15-285.27-.34,127.7-.34,285.27-.34,285.24.15,285.24.34Z"/>
  </g>
  <g id="Graphics">
    <g>
      <g>
        <rect class="cls-3" x="511.87" y="82.73" width="249.92" height="228.9"/>
        <path class="cls-20" d="m762.45,312.29h-251.24V82.07h251.24v230.22Zm-249.92-1.32h248.59V83.39h-248.59v227.58Z"/>
      </g>
      <rect class="cls-20" x="506.09" y="68.96" width="260.21" height="14.6"/>
      <polygon class="cls-10" points="512.44 83.55 761.23 107.97 761.1 83.55 512.44 83.55"/>
    </g>
    <g>
      <rect class="cls-11" x="550.75" y="159.9" width="8.39" height="93.65"/>
      <rect class="cls-11" x="566.94" y="191.71" width="8.39" height="61.84"/>
      <rect class="cls-11" x="583.13" y="171.54" width="8.39" height="82.49"/>
      <rect class="cls-11" x="599.32" y="163.52" width="8.39" height="90.03"/>
      <rect class="cls-11" x="615.51" y="193.61" width="8.39" height="59.94"/>
      <rect class="cls-11" x="631.69" y="205.37" width="8.39" height="48.18"/>
      <rect class="cls-11" x="647.88" y="169.51" width="8.39" height="84.04"/>
      <rect class="cls-11" x="664.07" y="184.66" width="8.39" height="68.89"/>
      <rect class="cls-11" x="680.26" y="172.56" width="8.39" height="81"/>
      <rect class="cls-11" x="696.45" y="198.37" width="8.39" height="55.18"/>
      <rect class="cls-11" x="712.64" y="187.87" width="8.39" height="65.68"/>
      <path class="cls-20" d="m715.83,181.13s-.19-.02-.54-.09c-.38-.08-.9-.19-1.57-.32-.68-.17-1.55-.28-2.56-.41-1.01-.17-2.2-.23-3.53-.29-2.66-.07-5.94.04-9.64.83-3.69.79-7.81,2.19-11.96,4.53-4.15,2.32-8.33,5.52-12.11,9.64-3.77,4.14-6.96,9.24-10.21,14.65-3.29,5.37-6.63,11.21-11.47,16.21-2.4,2.49-5.2,4.75-8.45,6.32-1.63.78-3.39,1.34-5.21,1.59-1.82.25-3.7.17-5.52-.19-3.65-.81-6.89-2.73-9.62-5.04-2.76-2.3-5.06-5.01-7.12-7.77-4.13-5.57-7.07-11.56-10.21-17.03-3.1-5.48-6.29-10.61-10.2-14.61-1.95-1.99-4.05-3.71-6.31-4.96-1.09-.71-2.29-1.13-3.41-1.65-1.18-.37-2.31-.83-3.48-1.03-4.63-1.08-9.03-.68-12.64.35-3.64,1.02-6.5,2.65-8.68,4.17-2.13,1.6-3.62,3.04-4.56,4.09-.45.51-.8.9-1.06,1.2-.24.27-.37.4-.38.39,0,0,.1-.16.33-.44.25-.31.58-.72,1.01-1.24.91-1.08,2.38-2.57,4.5-4.21,2.17-1.57,5.05-3.26,8.73-4.33,3.65-1.08,8.13-1.53,12.86-.46,4.73.94,9.56,3.66,13.5,7.72,3.99,4.05,7.22,9.21,10.35,14.7,3.17,5.47,6.11,11.45,10.2,16.94,2.05,2.73,4.32,5.4,7.02,7.65,2.67,2.27,5.82,4.12,9.32,4.89,1.75.34,3.54.42,5.29.18,1.74-.25,3.44-.77,5.01-1.53,3.15-1.52,5.9-3.72,8.26-6.17,4.77-4.91,8.11-10.7,11.41-16.07,3.27-5.4,6.49-10.54,10.33-14.71,3.84-4.15,8.09-7.37,12.3-9.68,4.21-2.33,8.38-3.72,12.12-4.48,3.75-.76,7.06-.83,9.73-.72,1.34.09,2.53.16,3.54.36,1.02.15,1.88.28,2.56.47.66.16,1.17.29,1.56.39.35.09.53.14.52.16Z"/>
      <path class="cls-20" d="m541.52,260.08c-.19,0-.34-26.71-.34-59.64s.15-59.65.34-59.65.34,26.7.34,59.65-.15,59.64-.34,59.64Z"/>
      <path class="cls-20" d="m724.45,260.08c0,.19-39.78.34-88.83.34s-88.84-.15-88.84-.34,39.77-.34,88.84-.34,88.83.15,88.83.34Z"/>
      <path class="cls-20" d="m562.71,267.45c0,.19-2.79.34-6.22.34s-6.22-.15-6.22-.34,2.79-.34,6.22-.34,6.22.15,6.22.34Z"/>
      <path class="cls-20" d="m583.35,267.82c0,.19-3.33.34-7.44.34s-7.44-.15-7.44-.34,3.33-.34,7.44-.34,7.44.15,7.44.34Z"/>
      <path class="cls-20" d="m600.96,267.82c0,.19-3.33.34-7.44.34s-7.44-.15-7.44-.34,3.33-.34,7.44-.34,7.44.15,7.44.34Z"/>
      <path class="cls-20" d="m618.57,267.82c0,.19-3.33.34-7.44.34s-7.44-.15-7.44-.34,3.33-.34,7.44-.34,7.44.15,7.44.34Z"/>
      <path class="cls-20" d="m636.17,267.82c0,.19-3.33.34-7.44.34s-7.44-.15-7.44-.34,3.33-.34,7.44-.34,7.44.15,7.44.34Z"/>
      <path class="cls-20" d="m653.78,267.82c0,.19-3.33.34-7.44.34s-7.44-.15-7.44-.34,3.33-.34,7.44-.34,7.44.15,7.44.34Z"/>
      <path class="cls-20" d="m671.39,267.82c0,.19-3.33.34-7.44.34s-7.44-.15-7.44-.34,3.33-.34,7.44-.34,7.44.15,7.44.34Z"/>
      <path class="cls-20" d="m688.99,267.82c0,.19-3.33.34-7.44.34s-7.44-.15-7.44-.34,3.33-.34,7.44-.34,7.44.15,7.44.34Z"/>
      <path class="cls-20" d="m706.6,267.82c0,.19-3.33.34-7.44.34s-7.44-.15-7.44-.34,3.33-.34,7.44-.34,7.44.15,7.44.34Z"/>
      <path class="cls-20" d="m724.21,267.82c0,.19-3.33.34-7.44.34s-7.44-.15-7.44-.34,3.33-.34,7.44-.34,7.44.15,7.44.34Z"/>
      <path class="cls-20" d="m608.06,204.39c0-.11.76.16,1,1.19.11.49.15,1.12-.19,1.77-.17.32-.48.63-.9.76-.42.14-.88.05-1.25-.15-.76-.41-1.13-1.25-1.07-1.96.05-.72.44-1.28.86-1.59.42-.32.9-.37,1.18-.29.29.09.38.22.36.25-.03.09-.62-.19-1.23.41-.28.28-.53.73-.54,1.24-.02.5.27,1.06.76,1.33.5.28,1.02.11,1.27-.32.26-.43.3-.96.26-1.37-.08-.87-.57-1.19-.52-1.28Z"/>
      <path class="cls-20" d="m689.11,181.78s.19-.1.53,0c.34.1.78.41,1.1.95.32.53.52,1.32.27,2.16-.24.8-.97,1.68-2.11,1.68-.56,0-1.05-.33-1.34-.7-.3-.37-.48-.79-.57-1.2-.19-.81-.01-1.62.35-2.14.76-1.07,1.7-1.02,1.66-.94.05.1-.74.25-1.24,1.19-.25.45-.33,1.08-.15,1.74.16.63.65,1.36,1.31,1.36.67.02,1.28-.59,1.48-1.19.22-.62.11-1.27-.1-1.73-.44-1-1.22-1.09-1.2-1.18Z"/>
      <g>
        <path class="cls-20" d="m690.42,137.53c-.19,0-.34-.44-.34-.99s.15-.99.34-.99.34.44.34.99-.15.99-.34.99Z"/>
        <path class="cls-20" d="m690.42,146.24c-.19,0-.34-.97-.34-2.18s.15-2.18.34-2.18.34.97.34,2.18-.15,2.18-.34,2.18Z"/>
        <path class="cls-20" d="m690.42,154.95c-.19,0-.34-.97-.34-2.18s.15-2.18.34-2.18.34.97.34,2.18-.15,2.18-.34,2.18Z"/>
        <path class="cls-20" d="m690.42,163.65c-.19,0-.34-.97-.34-2.18s.15-2.18.34-2.18.34.97.34,2.18-.15,2.18-.34,2.18Z"/>
        <path class="cls-20" d="m690.42,172.36c-.19,0-.34-.97-.34-2.18s.15-2.18.34-2.18.34.97.34,2.18-.15,2.18-.34,2.18Z"/>
        <path class="cls-20" d="m690.42,178.7c-.19,0-.34-.44-.34-.99s.15-.99.34-.99.34.44.34.99-.15.99-.34.99Z"/>
      </g>
      <path class="cls-20" d="m750.08,120.77c0,.19-13.76.34-30.72.34s-30.72-.15-30.72-.34,13.75-.34,30.72-.34,30.72.15,30.72.34Z"/>
      <path class="cls-20" d="m729.1,112.17c0,.19-8.85.34-19.77.34s-19.77-.15-19.77-.34,8.85-.34,19.77-.34,19.77.15,19.77.34Z"/>
      <rect class="cls-19" x="550.75" y="159.9" width="8.39" height="93.65"/>
      <rect class="cls-19" x="566.94" y="191.71" width="8.39" height="61.84"/>
      <rect class="cls-19" x="583.13" y="171.54" width="8.39" height="82.49"/>
      <rect class="cls-19" x="599.32" y="163.52" width="8.39" height="90.03"/>
      <rect class="cls-19" x="615.51" y="193.61" width="8.39" height="59.94"/>
      <rect class="cls-19" x="631.69" y="205.37" width="8.39" height="48.18"/>
      <rect class="cls-19" x="647.88" y="169.51" width="8.39" height="84.04"/>
      <rect class="cls-19" x="664.07" y="184.66" width="8.39" height="68.89"/>
      <rect class="cls-19" x="680.26" y="172.56" width="8.39" height="81"/>
      <rect class="cls-19" x="696.45" y="198.37" width="8.39" height="55.18"/>
      <rect class="cls-19" x="712.64" y="187.87" width="8.39" height="65.68"/>
    </g>
  </g>
  <g id="Character_3" data-name="Character 3">
    <g>
      <g>
        <g>
          <rect class="cls-7" x="814.61" y="457.56" width="9.15" height="109.69" transform="translate(1638.38 1024.81) rotate(180)"/>
          <path class="cls-7" d="m754.41,462.52h130.94c0-7.85-6.36-14.21-14.21-14.21h-102.51c-7.85,0-14.21,6.36-14.21,14.21h0Z"/>
          <path class="cls-20" d="m810.3,462.81c0,.19,3.6.34,8.03.34s8.03-.15,8.03-.34-3.6-.34-8.03-.34-8.03.15-8.03.34Z"/>
        </g>
        <path class="cls-7" d="m779.14,577.19h1.29c0-21.48,17.48-38.96,38.96-38.96s38.95,17.48,38.95,38.96h1.29c0-22.2-18.06-40.25-40.25-40.25s-40.25,18.06-40.25,40.25Z"/>
        <path class="cls-20" d="m852.96,579.19c0,3.33,2.7,6.03,6.03,6.03s6.03-2.7,6.03-6.03-2.7-6.04-6.03-6.04-6.03,2.7-6.03,6.04Z"/>
        <path class="cls-7" d="m773.45,578.35c0,3.33,2.7,6.04,6.03,6.04s6.04-2.7,6.04-6.04-2.7-6.03-6.04-6.03-6.03,2.7-6.03,6.03Z"/>
        <path class="cls-7" d="m779.53,567.25c0,.19,17.51.34,39.12.34s39.12-.15,39.12-.34-17.51-.34-39.12-.34-39.12.15-39.12.34Z"/>
      </g>
      <path class="cls-7" d="m889.2,348.97v80.75c0,10.59-8.58,19.17-19.17,19.17h-62.22l8.45-99.92c0-4.72,3.83-8.55,8.55-8.55h55.85c4.72,0,8.55,3.83,8.55,8.55Z"/>
      <path class="cls-20" d="m867.21,448.31s.04-.09.14-.24c.13-.18.27-.4.46-.66.41-.57,1-1.43,1.71-2.56,1.4-2.27,3.27-5.7,4.64-10.28.68-2.28,1.25-4.85,1.54-7.64.33-2.78.25-5.79.25-8.97,0-6.35-.02-13.32-.03-20.64.04-14.62.07-27.85.1-37.5.04-4.75.08-8.62.1-11.36.03-1.3.05-2.33.06-3.09.02-.71.04-1.08.07-1.08s.04.37.07,1.08c.02.76.04,1.79.06,3.09.03,2.75.06,6.61.1,11.36.02,9.65.06,22.88.1,37.5,0,7.32-.02,14.29-.03,20.64-.02,3.16.05,6.2-.31,9.03-.32,2.82-.92,5.41-1.64,7.71-1.44,4.62-3.39,8.05-4.86,10.29-.75,1.12-1.37,1.96-1.82,2.51-.44.56-.68.83-.7.82Z"/>
      <path class="cls-20" d="m833.33,448.35s.7-.08,1.98-.11c1.39-.02,3.2-.04,5.39-.07,4.55-.03,10.84-.02,17.79.03,3.47.03,6.79.04,9.79.12,3,.05,5.76.22,7.99.87,2.24.62,3.84,1.67,4.8,2.52.49.42.83.78,1.04,1.04.22.26.33.4.31.41-.06.05-.51-.5-1.51-1.26-.99-.76-2.58-1.72-4.76-2.27-2.18-.58-4.87-.7-7.88-.72-3.02-.02-6.33-.04-9.79-.06-6.94-.05-13.23-.13-17.78-.22-2.19-.06-4-.11-5.39-.14-1.27-.05-1.98-.1-1.98-.14Z"/>
    </g>
    <path class="cls-20" d="m776.03,263.49c-1.84,5.64-3.69,11.42-3.56,17.35.06,2.74.51,5.69-.84,8.08-.94,1.66-2.6,2.76-3.9,4.15-3.24,3.44-4.13,8.88-2.16,13.18.69,1.5,1.72,2.88,3.13,3.73,1.63.98,3.59,1.17,5.48,1.28,6.3.37,12.65.08,18.89-.85,2.98-.45,6.22-1.2,8.06-3.59,1.65-2.14,1.77-5.05,1.67-7.75-.38-10.24-2.92-20.39-7.42-29.6"/>
    <path class="cls-20" d="m818.36,257.37c2.89-.92,6.29,1.76,6.07,4.79-.22,3.03-3.96,5.19-6.69,3.87,3.04-.52,5.95,1.77,7.36,4.51s1.74,5.89,2.46,8.88,2.03,6.1,4.66,7.7c2.51,1.52,6.05,1.59,7.68,4.03,1.69,2.54.2,6.01.91,8.98.7,2.95,3.4,4.91,5.8,6.77,2.39,1.86,4.86,4.33,4.73,7.36-.1,2.43-1.95,4.52-4.14,5.58-2.19,1.06-4.68,1.27-7.11,1.38-11.99.53-24.06-1.02-35.52-4.58-1.82-.56-3.72-1.24-4.91-2.72-1.82-2.26-1.39-5.52-.86-8.37,1.67-9.04,3.34-18.11,6.3-26.81,2.96-8.7,7.27-17.07,13.63-23.71"/>
    <g>
      <path class="cls-1" d="m836.29,344.48h14.14l-5.02-25.19c-3.7-20.62-32.61-22.04-32.61-22.04l-22.68-.37s-16.82-2.26-27.2,9.44c-2.13,2.4-4.36,4.89-6.56,7.34l-24.6,25.74-2.61-32.29-21.07,3.31,2.95,40.56c.64,6.53,4.88,12.39,11.14,14.38,4.56,1.45,9.19.18,13.82-2.13,12.27-6.12,35.29-25.59,37.05-27.09-1.06,2.18-3.18,7.11-3.18,11.79,0,6.72,6.89,11.74,6.89,11.74l2.15,20.44-7.12,33,74.08-2.97c-1.45-11.97-5.27-22.21-10.92-31.13l1.38-34.54Zm-63.22-8.44c-.06-.06-.14-.23-.24-.5l.79-.56s-.22.39-.55,1.06Z"/>
      <g>
        <path class="cls-17" d="m803.14,401.67c-4.14,2.74-9.17,5.93-11.99,7.28-5.25,2.5-5.5,2.04-5.7,1.38-.55-1.77,9.07-4.75,6.6-5.29-2.47-.54-11.3,5-11.8,3.13-.65-2.43,9.48-5.37,10.32-5.68.81-.3.38-1.52-.36-1.2-1.06.46-12.36,5.04-13.02,2.65-.36-1.32,2.1-1.7,2.1-1.7,0,0,10.9-3.51,10.56-4.62-.35-1.13-6.83.71-8.97,1.49-2.11.77-3.36.08-2.95-1.12.28-.82,6.76-3.35,8.9-4.07,2.13-.72,8.02-2.58,4.31-4-3.71-1.42-6.04-3.87-6.21-4.95-.17-1.09,1.3-1.69,2.17-.82.7.7,2.23,1.52,3.41,2.09.97.47,2.01.79,3.08.91.92.11,1.75.18,2.48.23l7.88.59,3.97,10.42-4.77,3.27Z"/>
        <path class="cls-1" d="m837.65,306.63s6.43,4.49,9.32,13.95c1.75,5.72,6.76,25.09,10.46,39.51,2.41,9.41-2.88,19.08-12.1,22.13l-41.69,22.53-6.81-17.62,36.58-24.04-8.84-32.74c-1.45-4.98-2.08-10.05-.26-14.91,1.87-4.98,5.66-9.73,13.34-8.8Z"/>
        <path class="cls-17" d="m709.46,311.58l-2.53-8.1c-1.18-5.8,3.4-6.73,4.17-7.59,2.38-2.67,4.09-3.3,4.09-3.3l-.37-2.33s-1.39-5.96-1.32-7.6c.06-1.39,2.55-1.49,2.91-.14.83,3.06,2.26,8.25,3.03,10.16,1.01,2.51,3.27,9.1,5.64,5.01,2.37-4.09,2.12-6.48,2.53-7.75.43-1.34,3.39-1.59,2.81,1.19-.24,1.16-.39,3.22-1.12,6.01-.32,1.24-1.01,2.77-1.36,4-.4,1.44-.58,6.81-.8,7.87l-17.7,2.57Z"/>
        <path class="cls-15" d="m710.79,297.45c.11,0,.22.93.64,2.39.21.72.5,1.57.92,2.48.2.45.47.97.52,1.61.05.61-.19,1.44-.95,1.75-.76.28-1.44-.05-1.93-.38-.5-.36-.86-.8-1.16-1.24-.59-.9-.85-1.83-1-2.59-.27-1.54-.24-2.49-.16-2.5.11-.02.25.94.63,2.39.2.72.5,1.56,1.06,2.35.27.39.62.77,1.02,1.05.39.27.91.45,1.28.29.37-.13.57-.62.54-1.07-.03-.46-.24-.93-.43-1.4-.4-.95-.65-1.85-.81-2.61-.31-1.53-.25-2.5-.16-2.5Z"/>
        <path class="cls-15" d="m714.42,294.77c.09-.03.54,1.15,1.2,3.07.35,1.04.72,2.17,1.12,3.39.2.65.45,1.28.62,2.06.07.39.1.84-.06,1.28-.16.45-.5.81-.9,1.02-.8.46-1.82.32-2.49-.13-.7-.44-1.16-1.09-1.46-1.73-.57-1.3-.78-2.47-1.08-3.45-.53-1.96-.81-3.19-.72-3.22.09-.03.54,1.15,1.18,3.08.35.95.63,2.17,1.18,3.31.28.57.69,1.09,1.24,1.43.54.34,1.24.42,1.81.1.59-.3.77-.91.63-1.58-.13-.65-.38-1.35-.56-1.99-.35-1.23-.68-2.38-.98-3.43-.54-1.96-.83-3.19-.74-3.21Z"/>
        <path class="cls-20" d="m728.55,346.94c-.18-.07.41-1.86,1.31-3.99.9-2.13,1.77-3.79,1.95-3.72.18.07-.41,1.86-1.31,3.99-.9,2.13-1.77,3.79-1.95,3.72Z"/>
        <path class="cls-10" d="m761.72,342.06c-.03.09-1.45-.24-3.72-.86-1.2-.34-2.54-.72-3.98-1.12-1.49-.45-3.15-1-4.75-1.91-1.6-.91-2.94-2.15-3.79-3.52-.87-1.37-1.13-2.9-1.12-4.07-.01-1.19,0-2.12-.09-2.76-.08-.64-.2-.99-.15-1.01.04-.02.24.3.41.96.18.65.24,1.63.32,2.79.06,1.16.33,2.5,1.17,3.76.81,1.26,2.07,2.4,3.59,3.26,1.52.87,3.13,1.43,4.6,1.91,1.42.46,2.74.88,3.93,1.26,2.24.74,3.6,1.24,3.58,1.33Z"/>
        <path class="cls-10" d="m823.66,393.34c-.12,0,.03-1.19-.33-3.03-.34-1.84-1.31-4.26-2.92-6.64-.79-1.2-1.62-2.29-2.38-3.29-.77-.99-1.41-1.93-2.09-2.52-.67-.6-1.4-.82-1.9-.85-.5-.03-.78.09-.81.03-.02-.03.23-.24.8-.3.55-.06,1.42.12,2.21.74.8.62,1.48,1.54,2.28,2.51.79.98,1.65,2.08,2.46,3.3,1.65,2.43,2.6,5.01,2.83,6.94.25,1.93-.08,3.12-.15,3.1Z"/>
        <path class="cls-10" d="m846.32,321.47s-.36-.08-1.03-.29c-.73-.23-1.69-.54-2.91-.93-2.52-.74-6.24-1.96-10.96-1.92-2.34.04-4.91.54-7.39,1.74-2.49,1.18-4.88,2.96-7.28,4.96-2.42,1.98-4.83,4.26-7.73,6.14-2.88,1.86-6.26,3.43-10,3.61-1.86.08-3.72-.3-5.37-1.07-1.66-.76-3.06-1.91-4.25-3.18-2.38-2.54-4.06-5.41-5.96-7.88-3.69-5.06-9.01-7.71-13.57-8.69-4.61-1.01-8.51-.49-11.04.16-2.55.69-3.85,1.41-3.89,1.32,0,0,1.25-.81,3.81-1.58,2.54-.74,6.5-1.35,11.21-.38,2.34.48,4.86,1.36,7.3,2.79,2.43,1.42,4.79,3.44,6.67,5.99,1.94,2.5,3.63,5.35,5.94,7.8,2.24,2.49,5.54,4.21,9.1,4.02,3.54-.17,6.83-1.67,9.66-3.49,2.84-1.83,5.26-4.08,7.7-6.07,2.42-2,4.87-3.8,7.44-4.99,2.56-1.21,5.23-1.7,7.62-1.71,4.82.03,8.54,1.34,11.05,2.16,1.26.43,2.22.8,2.87,1.05.65.26.99.4.98.42Z"/>
        <path class="cls-10" d="m829.87,356.1c-.03.08-.82-.39-2.38-.55-1.57-.15-3.85.3-6.43,1.48-2.58,1.13-5.54,2.92-9.2,4.03-3.62,1.16-7.8,1.86-12.2,1.77-4.4-.08-8.55-.96-12.11-2.29-3.58-1.32-6.55-3.07-8.88-4.74-2.32-1.69-4-3.31-5.09-4.48-.55-.58-.95-1.06-1.21-1.39-.26-.33-.39-.51-.37-.52.05-.04.63.62,1.77,1.73,1.14,1.1,2.85,2.65,5.18,4.27,2.34,1.6,5.29,3.28,8.82,4.54,3.51,1.28,7.59,2.12,11.91,2.2,4.32.09,8.42-.58,11.99-1.69,3.6-1.06,6.54-2.77,9.2-3.88,2.64-1.14,5.03-1.54,6.65-1.3,1.62.25,2.36.81,2.36.81Z"/>
        <path class="cls-10" d="m854.9,350.52s-.05.38-.33,1c-.27.62-.73,1.49-1.47,2.46-1.42,1.92-4.16,4.27-7.86,5.05-3.67.8-7.05.21-9.38-.23-2.35-.49-3.76-.92-3.74-1,.02-.1,1.48.16,3.83.52,2.33.32,5.65.81,9.15.04,3.52-.74,6.14-2.89,7.63-4.68,1.51-1.81,2.06-3.2,2.17-3.15Z"/>
        <path class="cls-20" d="m823.9,327.53s.08.21.19.64c.11.47.26,1.09.45,1.87.41,1.69,1,4.08,1.74,7.11,1.52,6.12,3.76,14.85,6.56,25.31l.05.2-.17.12c-8.94,6.17-19.52,13.47-30.83,21.27-1.64,1.13-3.27,2.25-4.88,3.36l.12-.41c2.43,6.1,4.76,11.95,6.93,17.4l-.45-.17c12.79-6.31,23.56-12.08,31.13-16.24,3.75-2.08,6.74-3.74,8.84-4.9,1-.55,1.78-.98,2.36-1.3.54-.29.82-.43.83-.42,0,.02-.26.19-.78.51-.56.34-1.33.81-2.3,1.39-2.02,1.2-4.99,2.93-8.75,5.07-7.53,4.26-18.26,10.11-31.04,16.47l-.31.16-.13-.33c-2.18-5.45-4.53-11.3-6.97-17.39l-.1-.25.23-.16c1.61-1.11,3.24-2.23,4.88-3.36,11.32-7.77,21.92-15.04,30.88-21.19l-.12.32c-2.75-10.48-4.9-19.23-6.32-25.38-.72-3.07-1.24-5.5-1.58-7.15-.15-.79-.28-1.42-.37-1.89-.08-.43-.11-.65-.1-.66Z"/>
        <path class="cls-20" d="m842.62,365.59c-.12.14-2-1.4-4.82-2.25-1.4-.44-2.71-.65-3.66-.7-.95-.06-1.56,0-1.58-.1-.02-.08.57-.32,1.58-.39,1.01-.08,2.41.07,3.87.53,2.97.9,4.77,2.79,4.61,2.91Z"/>
      </g>
    </g>
    <g>
      <g>
        <path class="cls-9" d="m688.15,508.22l5.48-11.36,21.35,10.12-7.83,16.71-1.36-.54c-6.05-2.47-30.57-12.96-33.94-16.02-3.76-3.41,16.32,1.1,16.32,1.1Z"/>
        <g class="cls-4">
          <path class="cls-2" d="m699.48,519.85c1.15-1.64,2.93-2.83,4.88-3.26,1.95-.43,3.99-.19,5.73.81l-2.82,5.97-7.78-3.52Z"/>
        </g>
      </g>
      <g class="cls-14">
        <path class="cls-2" d="m678.19,506.33s-7.23-1.18-6.93.24c.3,1.42,24.68,12.96,35.88,17.11l.19-.49-28.56-13.22s.63-3-.59-3.64Z"/>
      </g>
      <path class="cls-20" d="m707.68,523.34s-.14-.04-.39-.13c-.33-.13-.68-.27-1.08-.44-1.08-.45-2.4-1.01-3.96-1.67-3.33-1.43-7.91-3.48-12.92-5.84-5.01-2.37-9.5-4.61-12.72-6.27-1.5-.79-2.77-1.46-3.81-2-.38-.21-.72-.39-1.03-.56-.23-.13-.35-.2-.35-.21,0,0,.13.05.38.16.32.15.66.32,1.05.51,1.04.52,2.33,1.16,3.85,1.92,3.25,1.62,7.75,3.83,12.75,6.19,5.01,2.36,9.57,4.43,12.88,5.91,1.55.69,2.86,1.28,3.92,1.75.39.18.74.34,1.06.49.24.11.37.18.36.19Z"/>
      <path class="cls-20" d="m678.62,510.31c-.08-.03.29-.98.15-2.2-.12-1.22-.7-2.07-.62-2.11.05-.06.77.78.9,2.08.15,1.3-.38,2.27-.44,2.23Z"/>
      <path class="cls-20" d="m686.44,510.1c-.08,0-.21-.5-.29-1.14-.08-.64-.08-1.16,0-1.17.08,0,.21.5.29,1.14.08.64.08,1.16,0,1.17Z"/>
      <path class="cls-20" d="m688.6,510c-.07.03-.3-.35-.51-.86-.21-.5-.32-.94-.25-.97.07-.03.3.35.52.86.21.5.32.94.25.97Z"/>
      <path class="cls-20" d="m690.65,508.5c-.03.07-.56-.1-1.18-.39-.62-.28-1.09-.57-1.06-.65.03-.07.56.1,1.18.39.62.28,1.09.57,1.06.65Z"/>
      <path class="cls-20" d="m691.7,507.26c0,.08-.67.06-1.41-.23-.75-.29-1.25-.72-1.2-.78.05-.07.59.24,1.31.51.71.28,1.32.41,1.31.49Z"/>
      <path class="cls-20" d="m686.6,507.89s-.57-.16-1.37-.66c-.4-.25-.85-.59-1.31-1.01-.22-.22-.47-.43-.67-.74-.09-.15-.18-.35-.14-.59.04-.23.26-.41.47-.45,1.63-.06,2.6,1.3,2.76,2.21.1.47.07.87.01,1.13-.06.26-.12.39-.14.39-.06,0,.16-.58-.07-1.47-.12-.43-.37-.92-.81-1.32-.42-.37-1.09-.74-1.69-.66-.29.06-.33.35-.16.61.16.25.41.48.62.69.43.42.86.77,1.24,1.04.75.53,1.28.78,1.26.83Z"/>
      <path class="cls-20" d="m686.21,507.79s-.06-.44.29-1.03c.18-.29.46-.59.85-.83.39-.19.9-.46,1.47-.16.3.19.28.63.12.83-.14.23-.34.38-.52.5-.37.25-.73.41-1.04.52-.63.22-1.05.22-1.05.18,0-.04.39-.12.97-.37.29-.13.63-.31.96-.55.33-.2.7-.66.39-.89-.33-.2-.84-.02-1.18.15-.36.19-.63.46-.81.71-.37.51-.41.93-.46.91Z"/>
      <path class="cls-20" d="m710,517.29s-.58-.35-1.6-.69c-1.01-.35-2.52-.58-4.11-.21-1.59.38-2.84,1.26-3.59,2.02-.76.76-1.08,1.36-1.13,1.33-.02,0,.05-.17.2-.43.15-.27.41-.63.78-1.04.73-.82,2.01-1.77,3.67-2.16,1.66-.39,3.23-.11,4.25.3.51.2.91.42,1.16.59.26.17.38.28.37.3Z"/>
      <path class="cls-20" d="m712,507.35c.07.03-.78,2.04-1.89,4.47-1.12,2.44-2.08,4.39-2.15,4.36-.07-.03.77-2.04,1.89-4.47,1.12-2.44,2.08-4.39,2.15-4.36Z"/>
      <path class="cls-20" d="m697.78,516.5c-.02.07-1.52-.36-3.26-1.17-1.74-.8-3.04-1.67-3.01-1.73.04-.07,1.4.67,3.13,1.47,1.73.8,3.17,1.35,3.14,1.43Z"/>
      <path class="cls-20" d="m701.97,518.47c.03.08-.25.24-.55.49-.3.25-.51.5-.58.46-.07-.03.05-.39.39-.68.34-.29.71-.35.73-.28Z"/>
      <path class="cls-20" d="m704.47,517.25c.03.07-.22.23-.54.35-.33.12-.61.16-.64.08-.03-.07.22-.23.54-.35.33-.12.61-.16.64-.08Z"/>
      <path class="cls-20" d="m707.15,517.43c-.05.07-.33-.07-.7-.11-.36-.05-.67.02-.7-.05-.04-.07.29-.29.74-.23.45.05.72.34.66.39Z"/>
      <path class="cls-20" d="m708.96,517.76c0,.08-.18.13-.39.12-.21-.02-.38-.09-.37-.17,0-.08.18-.13.39-.12.21.01.38.09.37.17Z"/>
    </g>
    <g>
      <g>
        <path class="cls-9" d="m751.71,577.03l-.26-12.61,23.62-.64.57,18.45-1.46.13c-6.51.54-33.13,2.27-37.52,1.07-4.9-1.34,15.05-6.4,15.05-6.4Z"/>
        <g class="cls-4">
          <path class="cls-2" d="m767.07,582.27c.28-1.98,1.33-3.85,2.88-5.12,1.55-1.27,3.48-1.97,5.47-1.87l.18,6.6-8.54.38Z"/>
        </g>
      </g>
      <g class="cls-14">
        <path class="cls-2" d="m741.97,579.85s-6.98,2.22-6.07,3.35c.91,1.13,27.88.39,39.74-.98l-.05-.53-31.45,1.13s-.79-2.96-2.17-2.98Z"/>
      </g>
      <path class="cls-20" d="m775.96,581.67s-.14.03-.4.06c-.35.03-.73.06-1.16.1-1.17.08-2.6.18-4.29.3-3.62.23-8.63.48-14.17.64-5.54.16-10.55.19-14.18.16-1.69-.02-3.13-.04-4.3-.06-.43-.01-.82-.03-1.17-.04-.27-.01-.41-.02-.41-.03,0,0,.14-.02.41-.03.35,0,.73-.01,1.17-.02,1.17,0,2.6-.02,4.3-.03,3.63-.03,8.64-.09,14.17-.25,5.53-.16,10.54-.38,14.16-.55,1.69-.08,3.13-.15,4.29-.21.43-.02.82-.03,1.17-.05.27,0,.41,0,.41,0Z"/>
      <path class="cls-20" d="m744.16,583.2c-.09.01-.18-1.01-.86-2.03-.66-1.03-1.56-1.53-1.51-1.6.02-.07,1.04.35,1.75,1.45.72,1.09.69,2.2.62,2.18Z"/>
      <path class="cls-20" d="m751.03,579.47c-.07.04-.41-.35-.77-.89-.36-.53-.6-1-.53-1.05.07-.04.41.35.77.89.36.53.6,1,.53,1.05Z"/>
      <path class="cls-20" d="m752.92,578.41c-.05.06-.43-.18-.85-.53-.42-.35-.71-.69-.66-.75.05-.06.43.18.85.53.42.35.71.69.66.75Z"/>
      <path class="cls-20" d="m754.06,576.15c0,.08-.55.16-1.23.19-.68.03-1.24-.02-1.24-.1s.55-.16,1.23-.19c.68-.03,1.24.02,1.24.1Z"/>
      <path class="cls-20" d="m754.44,574.56c.03.07-.57.36-1.36.44-.8.08-1.44-.08-1.43-.15.01-.08.64-.05,1.4-.13.76-.08,1.37-.23,1.39-.15Z"/>
      <path class="cls-20" d="m750.17,577.43s-.58.12-1.52.03c-.47-.04-1.03-.14-1.63-.31-.3-.1-.61-.17-.94-.36-.15-.1-.32-.23-.39-.46-.07-.23.05-.48.21-.61,1.43-.79,2.91-.02,3.46.72.31.37.45.74.52,1,.07.26.07.41.05.41-.05.02-.12-.59-.73-1.28-.3-.33-.75-.65-1.32-.81-.54-.14-1.3-.17-1.81.17-.24.19-.13.47.14.62.25.15.58.24.86.34.58.18,1.12.3,1.57.36.91.14,1.49.12,1.49.17Z"/>
      <path class="cls-20" d="m749.78,577.52s-.26-.36-.2-1.05c.03-.34.14-.74.38-1.12.26-.34.59-.82,1.24-.81.35.04.54.43.49.69-.02.27-.13.5-.24.69-.22.39-.46.7-.69.94-.46.48-.83.67-.85.64-.03-.04.29-.28.7-.77.2-.25.42-.56.61-.93.2-.33.33-.91-.06-.97-.38-.03-.76.36-.98.67-.23.33-.35.69-.4,1-.1.62.05,1.01,0,1.02Z"/>
      <path class="cls-20" d="m775.3,575.23c0,.05-.68-.05-1.74.11-1.05.15-2.51.62-3.76,1.67-1.25,1.06-1.96,2.41-2.29,3.43-.33,1.02-.35,1.7-.4,1.7-.02,0-.03-.17-.01-.48.02-.31.08-.75.22-1.28.28-1.06.99-2.49,2.3-3.59,1.3-1.1,2.83-1.56,3.92-1.66.55-.05,1-.04,1.3,0,.3.04.47.08.47.09Z"/>
      <path class="cls-20" d="m772.58,565.46c.08,0,.23,2.17.34,4.85.11,2.68.13,4.85.05,4.86-.08,0-.23-2.17-.34-4.85-.11-2.68-.13-4.85-.05-4.86Z"/>
      <path class="cls-20" d="m764.04,580.05c.01.07-1.52.37-3.44.44-1.92.07-3.47-.11-3.46-.18,0-.08,1.55-.03,3.45-.1,1.9-.07,3.44-.23,3.45-.15Z"/>
      <path class="cls-20" d="m768.67,579.92c.06.06-.12.33-.26.69-.15.36-.23.67-.31.67-.08,0-.13-.37.04-.78.17-.41.48-.63.53-.58Z"/>
      <path class="cls-20" d="m770.35,577.7c.06.05-.09.3-.33.56-.24.25-.48.42-.53.36-.06-.05.09-.3.33-.56.24-.25.48-.42.53-.36Z"/>
      <path class="cls-20" d="m772.82,576.64c-.01.08-.33.09-.67.22-.35.12-.59.32-.65.27-.06-.04.12-.38.55-.54.43-.16.79-.02.77.05Z"/>
      <path class="cls-20" d="m774.59,576.12c.03.07-.1.2-.3.28-.19.08-.38.09-.41.02-.03-.07.1-.2.3-.28.19-.08.38-.09.41-.02Z"/>
    </g>
    <g>
      <path class="cls-20" d="m770.28,345.19c-.09-.03.27-1.32.89-3.4.31-1.04.69-2.28,1.17-3.64.24-.68.5-1.39.8-2.12.17-.39.37-.73.48-1.06.11-.33.14-.71.13-1.09-.02-.77-.22-1.56-.35-2.33-.14-.76-.28-1.5-.41-2.21-.23-1.35-.45-2.6-.65-3.76-.35-2.14-.52-3.48-.42-3.5.1-.02.45,1.28.93,3.4.25,1.14.52,2.39.81,3.72.15.71.3,1.45.45,2.2.14.76.35,1.55.38,2.45.01.44-.03.89-.17,1.33-.15.44-.37.78-.51,1.11-.3.71-.58,1.41-.83,2.07-.47,1.28-.91,2.47-1.31,3.57-.74,2.04-1.29,3.28-1.38,3.24Z"/>
      <g class="cls-16">
        <path d="m822.65,323.84c.92,14.05,2.34,29.84,2.61,43.91,2.16-.98,7.3-4.69,7.3-5.21,0,0-6.71-23.56-9.91-38.7Z"/>
      </g>
    </g>
    <g>
      <g>
        <path class="cls-20" d="m846.06,406.83s-96.87-20.29-106.24-15.85c-9.38,4.44-52.63,111.34-52.63,111.34l29.17,10.71,39.6-88.7s71.34,26.9,83.19,24.44c11.85-2.46,6.91-41.95,6.91-41.95Z"/>
        <path class="cls-20" d="m802.77,412.53c-1.48.49-57.51,23.53-61.46,30.93-3.95,7.4,5.75,130.35,5.75,130.35h31.87l-1.97-109.27,62.2-15.76-36.38-36.25Z"/>
        <path class="cls-7" d="m839.48,449.03s-.32-.01-.92-.11c-.67-.12-1.54-.27-2.61-.46-2.26-.42-5.53-1.06-9.55-1.91-8.04-1.7-19.12-4.27-31.18-7.72-6.03-1.75-11.73-3.57-16.87-5.34-5.12-1.82-9.72-3.53-13.5-5.15-1.91-.77-3.6-1.54-5.09-2.21-1.49-.66-2.77-1.26-3.79-1.78-.97-.49-1.76-.89-2.36-1.19-.54-.28-.81-.44-.8-.46.01-.02.31.09.87.33.62.27,1.43.63,2.42,1.07,1.04.48,2.33,1.04,3.84,1.67,1.5.64,3.21,1.37,5.12,2.11,3.8,1.55,8.4,3.21,13.53,4.99,5.15,1.73,10.84,3.53,16.86,5.27,12.04,3.45,23.08,6.1,31.09,7.92,3.94.89,7.16,1.61,9.49,2.14,1.06.25,1.92.44,2.58.6.59.14.89.23.89.26Z"/>
        <path class="cls-7" d="m741.32,471.71c-.05,0-.15-.65-.29-1.84-.14-1.33-.32-3.02-.53-5.04-.2-2.18-.44-4.71-.7-7.48-.23-2.8-.63-5.96-.01-9.27.59-3.33,2.53-6.1,4.65-8.01,2.13-1.95,4.43-3.2,6.37-4.1,1.96-.9,3.6-1.47,4.73-1.86,1.13-.38,1.77-.57,1.79-.52.05.13-2.46,1.01-6.3,2.85-1.89.95-4.11,2.21-6.14,4.13-2.02,1.89-3.83,4.5-4.39,7.66-.59,3.15-.23,6.26-.03,9.08.2,2.78.38,5.31.54,7.5.12,2.02.22,3.72.3,5.06.06,1.2.06,1.86.01,1.86Z"/>
        <path class="cls-20" d="m769.27,461.14c.08-.18,1.84.41,3.92,1.33,2.08.92,3.71,1.81,3.63,1.99-.08.18-1.84-.41-3.92-1.33-2.08-.92-3.71-1.81-3.63-1.99Z"/>
        <path class="cls-20" d="m772.09,457.78c.2-.08,1.08,1.68,2.54,3.6,1.44,1.93,2.9,3.26,2.77,3.42-.11.16-1.84-.97-3.35-2.98-1.52-2-2.13-3.98-1.95-4.04Z"/>
      </g>
      <path class="cls-20" d="m784.32,462.83s-.09.26-.49.5c-.39.25-1.06.42-1.85.44-.79.04-1.72-.08-2.65.07-.95.12-1.59.88-1.58,2.03-.04,4.67-.19,8.51-.4,8.51-.2,0-.37-3.8-.33-8.55.03-.61.16-1.3.6-1.81.42-.52,1.06-.77,1.6-.84,1.1-.13,2.01.06,2.76.08,1.53.16,2.26-.5,2.33-.42Z"/>
    </g>
    <g>
      <path class="cls-20" d="m778.38,237.84c-4.84,1.56-10.47,4.78-7.68,19.94,1.23,6.67,2.78,13.47,7.25,18.56.68.77,1.57,1.58,2.59,1.43.73-.1,1.29-.67,1.79-1.21,5.08-5.54,9.41-12.08,10.78-19.47,1.37-7.39-.69-15.72-6.5-20.48"/>
      <g>
        <g>
          <path class="cls-17" d="m787.67,303.66c-.16-6.97-.46-14.45-.46-14.45,0,0-10.61-1.34-11.07-12.17-.46-10.83-.57-29.79-.57-29.79l20.71-15.34,14.55,20.02.36,51.38c.05,6.53-5.24,11.85-11.77,11.85h0c-6.39,0-11.62-5.1-11.76-11.49Z"/>
          <path class="cls-15" d="m787.21,289.21s7.1.2,14.05-4.6c0,0-3.3,7.89-13.86,7.26l-.18-2.66Z"/>
          <path class="cls-15" d="m788.17,276.59c-.19-.41-.14-.91.12-1.27.26-.36.72-.57,1.17-.52.06-.99,1.04-1.81,2.03-1.77.99.04,1.88.87,2.05,1.84s-.33,2.02-1.16,2.57c-.83.54-1.94.6-2.86.21-.72-.3-1.35-.93-1.44-1.7"/>
          <g>
            <g>
              <g>
                <path class="cls-20" d="m777.76,260.38c-.03.78.61,1.46,1.43,1.5.82.04,1.5-.55,1.53-1.34.03-.78-.61-1.46-1.43-1.5-.82-.04-1.51.56-1.53,1.34Z"/>
                <path class="cls-20" d="m777.83,259.16c.18.19,1.31-.64,2.91-.64,1.6-.02,2.77.8,2.94.61.09-.09-.1-.44-.61-.81-.5-.37-1.36-.73-2.36-.73-1,0-1.83.37-2.32.75-.49.38-.66.73-.57.81Z"/>
              </g>
              <g>
                <path class="cls-20" d="m793.82,260.53c-.03.78.61,1.46,1.43,1.5.82.04,1.5-.55,1.53-1.34.03-.78-.61-1.46-1.43-1.5-.82-.04-1.51.56-1.53,1.34Z"/>
                <path class="cls-20" d="m793.55,259.46c.18.19,1.31-.64,2.91-.64,1.6-.02,2.77.8,2.94.61.08-.09-.1-.44-.61-.81-.5-.37-1.36-.73-2.36-.73-1,0-1.83.37-2.32.75-.49.38-.66.73-.57.81Z"/>
              </g>
              <path class="cls-20" d="m787.75,271.32c0-.09-.99-.26-2.6-.47-.41-.04-.79-.12-.86-.4-.1-.3.07-.74.27-1.21.38-.99.79-2.02,1.21-3.11,1.68-4.43,2.89-8.07,2.71-8.13-.18-.07-1.68,3.47-3.36,7.9-.4,1.09-.79,2.13-1.16,3.13-.15.46-.42.99-.21,1.6.11.31.41.53.67.6.26.08.49.08.69.1,1.62.09,2.63.09,2.63,0Z"/>
              <path class="cls-20" d="m792.45,272.42c-.26-.02-.26,1.72-1.75,2.95-1.48,1.24-3.33,1.04-3.35,1.28-.02.11.41.34,1.19.36.77.03,1.88-.22,2.79-.97.91-.76,1.3-1.76,1.36-2.48.07-.73-.13-1.16-.25-1.15Z"/>
            </g>
            <path class="cls-20" d="m792.83,255.89c.16.43,1.75.23,3.63.45,1.88.19,3.39.74,3.64.35.11-.19-.15-.6-.76-1.02-.61-.42-1.57-.82-2.7-.95-1.13-.12-2.16.06-2.84.33-.69.28-1.04.62-.97.83Z"/>
            <path class="cls-20" d="m778.42,254.53c.28.36,1.38-.01,2.71-.03,1.32-.06,2.45.24,2.7-.14.11-.18-.06-.55-.55-.89-.48-.34-1.29-.62-2.2-.6-.91.03-1.7.36-2.16.73-.47.37-.62.75-.5.92Z"/>
          </g>
        </g>
        <path class="cls-20" d="m801.22,255.01c1.93-.05,3.8-.63,5.27-1.88.96,2.56.94,5.39,1.82,7.97.88,2.58,1.74,27.48,4.44,27.07,2.48-.37,5.43-25.36,6.07-27.78,1.75-6.7-.44-14.08-4.9-19.38-5.29-6.29-14.1-11.65-22.29-11.07-3.63.26-7.3,1.32-10.16,3.58,0,0-4.42,3.41-4.05,7.76.51,6.06,9.35,9.97,15.43,9.78l.86.84c2.01,1.96,4.7,3.18,7.5,3.11Z"/>
        <path class="cls-20" d="m775.52,253.03c1.54-1.18,2.51-2.98,3.02-4.85.51-1.87.61-3.83.7-5.76.03-.56-.05-1.28-.6-1.43-.52-.14-.96.4-1.22.88-1.89,3.56-2.57,7.75-1.91,11.73.12-.11-.36.3-.25.2"/>
      </g>
    </g>
  </g>
  <g id="Character_2" data-name="Character 2">
    <g>
      <g>
        <g>
          <path class="cls-11" d="m625.39,578.93l.07-12.97-24.29-.29-.31,18.97,1.51.11c6.7.45,34.1,1.83,38.59.53,5.02-1.46-15.57-6.35-15.57-6.35Z"/>
          <g class="cls-14">
            <path d="m609.67,584.56c-.32-2.03-1.43-3.93-3.04-5.22-1.61-1.28-3.6-1.97-5.66-1.83l-.09,6.79,8.78.26Z"/>
          </g>
        </g>
        <g class="cls-14">
          <path d="m635.45,581.69s7.21,2.17,6.29,3.36c-.92,1.18-28.65.83-40.88-.4l.05-.54,32.35.69s.77-3.06,2.19-3.1Z"/>
        </g>
        <path class="cls-20" d="m600.53,584.08s.14.03.42.05c.36.03.75.06,1.2.09,1.2.07,2.67.15,4.41.25,3.73.18,8.88.36,14.58.44,5.7.08,10.85.03,14.58-.05,1.74-.05,3.22-.09,4.42-.13.45-.02.84-.04,1.2-.06.27-.02.42-.03.42-.04s-.14-.02-.42-.02c-.36,0-.76,0-1.2,0-1.2,0-2.68.02-4.42.03-3.73.03-8.88.04-14.58-.04-5.69-.08-10.84-.23-14.57-.36-1.74-.06-3.22-.11-4.42-.15-.45-.01-.84-.02-1.2-.03-.27,0-.42,0-.42,0Z"/>
        <path class="cls-20" d="m633.25,585.16c.09.01.17-1.04.85-2.1.66-1.07,1.58-1.6,1.53-1.67-.02-.07-1.06.37-1.78,1.51-.72,1.13-.68,2.27-.6,2.25Z"/>
        <path class="cls-20" d="m626.13,581.44c.07.04.42-.37.78-.92.36-.55.6-1.04.53-1.08-.07-.04-.42.37-.78.92-.36.55-.6,1.04-.53,1.08Z"/>
        <path class="cls-20" d="m624.17,580.37c.05.06.44-.19.86-.56.42-.37.72-.72.67-.78-.05-.06-.44.19-.86.56-.42.37-.72.72-.67.78Z"/>
        <path class="cls-20" d="m622.96,578.06c0,.08.56.16,1.27.18s1.27-.04,1.27-.12c0-.08-.56-.16-1.27-.18-.7-.02-1.27.04-1.27.12Z"/>
        <path class="cls-20" d="m622.55,576.44c-.03.07.59.36,1.41.43.82.07,1.48-.1,1.46-.18-.01-.08-.66-.05-1.44-.12-.78-.07-1.41-.22-1.44-.14Z"/>
        <path class="cls-20" d="m626.98,579.33s.6.11,1.56,0c.48-.05,1.05-.16,1.67-.35.31-.1.62-.18.96-.38.16-.1.33-.24.39-.48.07-.23-.05-.5-.23-.63-1.48-.79-2.99.03-3.55.79-.31.39-.45.77-.52,1.04-.07.27-.06.42-.05.42.05.02.11-.61.73-1.32.3-.35.76-.68,1.34-.85.55-.16,1.34-.19,1.86.15.25.19.15.48-.13.64-.26.16-.59.26-.88.36-.59.2-1.15.32-1.61.4-.94.15-1.53.15-1.53.2Z"/>
        <path class="cls-20" d="m627.38,579.41s.26-.38.19-1.08c-.03-.34-.15-.76-.41-1.15-.27-.35-.62-.83-1.29-.81-.36.04-.54.45-.49.71.03.27.14.51.26.7.23.39.49.71.73.95.48.48.87.67.89.64.03-.04-.31-.28-.73-.78-.21-.25-.44-.57-.64-.95-.21-.33-.35-.93.04-.99.39-.03.79.36,1.02.68.24.34.37.71.43,1.02.11.64-.04,1.04.01,1.05Z"/>
        <path class="cls-20" d="m601.11,577.44c0,.05.7-.06,1.79.09,1.09.13,2.59.6,3.9,1.66,1.3,1.07,2.06,2.45,2.4,3.49.36,1.05.38,1.75.44,1.74.02,0,.03-.18,0-.49-.02-.31-.09-.77-.25-1.31-.3-1.08-1.06-2.54-2.42-3.65-1.36-1.11-2.94-1.56-4.06-1.64-.56-.05-1.02-.02-1.34.02-.31.04-.48.09-.48.1Z"/>
        <path class="cls-20" d="m603.75,567.36c-.08,0-.2,2.23-.27,4.99-.07,2.76-.06,4.99.02,5,.08,0,.2-2.23.27-4.99.07-2.76.06-4.99-.02-4.99Z"/>
        <path class="cls-20" d="m612.76,582.23c-.01.08,1.57.36,3.54.4,1.97.05,3.56-.16,3.56-.24,0-.09-1.59,0-3.55-.06-1.96-.04-3.54-.19-3.55-.1Z"/>
        <path class="cls-20" d="m608,582.16c-.06.06.13.34.28.7.16.36.24.69.33.69.08,0,.13-.38-.06-.8-.18-.42-.5-.64-.55-.59Z"/>
        <path class="cls-20" d="m606.23,579.91c-.06.06.09.31.34.57.25.26.5.42.56.37.06-.06-.09-.31-.34-.57-.25-.26-.5-.42-.56-.36Z"/>
        <path class="cls-20" d="m603.68,578.85c.02.08.34.08.69.21.36.12.61.32.67.27.07-.04-.13-.39-.58-.55-.44-.16-.82-.01-.79.06Z"/>
        <path class="cls-20" d="m601.86,578.35c-.03.08.11.2.31.28.2.08.39.08.42,0,.03-.08-.11-.2-.31-.28-.2-.08-.39-.08-.42,0Z"/>
      </g>
      <g>
        <g>
          <path class="cls-11" d="m531.04,578.93l-.07-12.97,24.29-.29.31,18.97-1.51.11c-6.7.45-34.1,1.83-38.59.53-5.02-1.46,15.57-6.35,15.57-6.35Z"/>
          <g class="cls-14">
            <path d="m546.76,584.56c.32-2.03,1.43-3.93,3.04-5.22,1.61-1.28,3.6-1.97,5.66-1.83l.09,6.79-8.78.26Z"/>
          </g>
        </g>
        <g class="cls-14">
          <path d="m520.99,581.69s-7.21,2.17-6.29,3.36c.92,1.18,28.65.83,40.88-.4l-.05-.54-32.35.69s-.77-3.06-2.19-3.1Z"/>
        </g>
        <path class="cls-20" d="m555.91,584.08s-.14.03-.42.05c-.36.03-.75.06-1.2.09-1.2.07-2.67.15-4.41.25-3.73.18-8.88.36-14.58.44-5.7.08-10.85.03-14.58-.05-1.74-.05-3.22-.09-4.42-.13-.45-.02-.84-.04-1.2-.06-.27-.02-.42-.03-.42-.04s.14-.02.42-.02c.36,0,.76,0,1.2,0,1.2,0,2.68.02,4.42.03,3.73.03,8.88.04,14.58-.04,5.69-.08,10.84-.23,14.57-.36,1.74-.06,3.22-.11,4.42-.15.45-.01.84-.02,1.2-.03.27,0,.42,0,.42,0Z"/>
        <path class="cls-20" d="m523.19,585.16c-.09.01-.17-1.04-.85-2.1-.66-1.07-1.58-1.6-1.53-1.67.02-.07,1.06.37,1.78,1.51.72,1.13.68,2.27.6,2.25Z"/>
        <path class="cls-20" d="m530.31,581.44c-.07.04-.42-.37-.78-.92-.36-.55-.6-1.04-.53-1.08.07-.04.42.37.78.92.36.55.6,1.04.53,1.08Z"/>
        <path class="cls-20" d="m532.26,580.37c-.05.06-.44-.19-.86-.56-.42-.37-.72-.72-.67-.78.05-.06.44.19.86.56.42.37.72.72.67.78Z"/>
        <path class="cls-20" d="m533.48,578.06c0,.08-.56.16-1.27.18-.7.02-1.27-.04-1.27-.12,0-.08.56-.16,1.27-.18.7-.02,1.27.04,1.27.12Z"/>
        <path class="cls-20" d="m533.88,576.44c.03.07-.59.36-1.41.43-.82.07-1.48-.1-1.46-.18.01-.08.66-.05,1.44-.12.78-.07,1.41-.22,1.44-.14Z"/>
        <path class="cls-20" d="m529.46,579.33s-.6.11-1.56,0c-.48-.05-1.05-.16-1.67-.35-.31-.1-.62-.18-.96-.38-.16-.1-.33-.24-.39-.48-.07-.23.05-.5.23-.63,1.48-.79,2.99.03,3.55.79.31.39.45.77.52,1.04.07.27.06.42.05.42-.05.02-.11-.61-.73-1.32-.3-.35-.76-.68-1.34-.85-.55-.16-1.34-.19-1.86.15-.25.19-.15.48.13.64.26.16.59.26.88.36.59.2,1.15.32,1.61.4.94.15,1.53.15,1.53.2Z"/>
        <path class="cls-20" d="m529.05,579.41s-.26-.38-.19-1.08c.03-.34.15-.76.41-1.15.27-.35.62-.83,1.29-.81.36.04.54.45.49.71-.03.27-.15.51-.26.7-.23.39-.49.71-.73.95-.48.48-.87.67-.89.64-.03-.04.31-.28.73-.78.21-.25.44-.57.64-.95.21-.33.35-.93-.04-.99-.39-.03-.79.36-1.02.68-.24.34-.37.71-.43,1.02-.11.64.04,1.04-.01,1.05Z"/>
        <path class="cls-20" d="m555.33,577.44c0,.05-.7-.06-1.79.09-1.09.13-2.59.6-3.9,1.66-1.3,1.07-2.06,2.45-2.4,3.49-.36,1.05-.38,1.75-.44,1.74-.02,0-.03-.18,0-.49.02-.31.09-.77.25-1.31.3-1.08,1.06-2.54,2.42-3.65,1.36-1.11,2.94-1.56,4.06-1.64.56-.05,1.02-.02,1.34.02.31.04.48.09.48.1Z"/>
        <path class="cls-20" d="m552.68,567.36c.08,0,.2,2.23.27,4.99.07,2.76.06,4.99-.02,5-.08,0-.2-2.23-.27-4.99-.07-2.76-.06-4.99.02-4.99Z"/>
        <path class="cls-20" d="m543.67,582.23c.01.08-1.57.36-3.54.4-1.97.05-3.56-.16-3.56-.24,0-.09,1.59,0,3.55-.06,1.96-.04,3.54-.19,3.55-.1Z"/>
        <path class="cls-20" d="m548.43,582.16c.06.06-.13.34-.28.7-.16.36-.24.69-.33.69-.08,0-.13-.38.06-.8.18-.42.5-.64.55-.59Z"/>
        <path class="cls-20" d="m550.2,579.91c.06.06-.09.31-.34.57-.25.26-.5.42-.56.37-.06-.06.09-.31.34-.57.25-.26.5-.42.56-.36Z"/>
        <path class="cls-20" d="m552.75,578.85c-.02.08-.34.08-.69.21-.36.12-.61.32-.67.27-.07-.04.13-.39.58-.55.44-.16.82-.01.79.06Z"/>
        <path class="cls-20" d="m554.58,578.35c.03.08-.11.2-.31.28-.2.08-.39.08-.42,0-.03-.08.11-.2.31-.28.2-.08.39-.08.42,0Z"/>
      </g>
      <g>
        <polygon class="cls-20" points="641.78 330.53 632.47 574.02 594.63 574.81 600.92 363.84 558.36 576.42 522.39 576.42 568.73 331.03 641.78 330.53"/>
        <path class="cls-20" d="m609.63,339.39c.09.02-.08,1.55-.43,4.01s-.89,5.86-1.52,9.61c-.34,1.87-.55,3.67-1.08,5.29-.51,1.61-1.44,2.94-2.47,3.72-1.02.8-2.05,1.13-2.75,1.23-.71.1-1.1.02-1.1-.02-.05-.13,1.67.03,3.55-1.57.93-.77,1.73-2,2.19-3.54.47-1.53.67-3.34,1.01-5.21.63-3.75,1.24-7.13,1.71-9.58.47-2.45.81-3.95.9-3.94Z"/>
        <path class="cls-20" d="m601.76,340.56c.08.06-.23.45-.05,1.09.09.3.3.66.63.81.32.17.78.08,1.13-.22.35-.31.49-.75.37-1.09-.11-.35-.43-.61-.72-.73-.61-.26-1.04,0-1.09-.09-.08-.04.35-.55,1.23-.36.41.1.91.38,1.16.97.26.59.02,1.37-.5,1.8-.5.46-1.3.6-1.85.27-.55-.32-.76-.86-.81-1.27-.08-.9.49-1.26.51-1.18Z"/>
        <path class="cls-20" d="m581.44,344.03c-.16.05-.71-1.5-.5-3.47.2-1.98,1.07-3.37,1.22-3.29.18.08-.37,1.51-.56,3.36-.21,1.84.02,3.36-.17,3.4Z"/>
        <path class="cls-20" d="m585.99,343.74c-.17.05-.69-1.55-.54-3.58.14-2.03.88-3.54,1.04-3.47.18.07-.25,1.59-.37,3.51-.14,1.92.07,3.49-.12,3.53Z"/>
        <path class="cls-20" d="m625.09,344.74c-.19-.05.12-1.66.21-3.66.11-2-.03-3.63.16-3.66.17-.04.62,1.61.5,3.69-.1,2.08-.71,3.67-.88,3.62Z"/>
        <path class="cls-20" d="m630.03,344.46c-.18-.08.41-1.67.54-3.71.15-2.04-.21-3.7-.02-3.75.16-.06.84,1.61.68,3.8-.14,2.18-1.06,3.75-1.2,3.67Z"/>
      </g>
      <g>
        <g>
          <g>
            <path class="cls-17" d="m589.07,229.24l23.36-1.87c.15-2.73-.05-13.28-.05-13.28,0,0,9.72-1.51,9.84-11.23.12-9.72-1.56-32.03-1.56-32.03h0c-11.25-4.83-24.23-3.2-33.93,4.27l-1.44,1.11,3.79,53.02Z"/>
            <path class="cls-15" d="m612.4,213.95s-6.14.5-12.67-3.6c0,0,2.99,6.99,12.69,6.12l-.02-2.52Z"/>
          </g>
          <g>
            <path class="cls-17" d="m586.48,186.28c-.17-.07-6.68-1.97-6.46,4.67.21,6.64,6.84,5.06,6.84,4.87s-.38-9.54-.38-9.54Z"/>
            <path class="cls-15" d="m584.75,193.36s-.11.08-.31.18c-.19.09-.51.16-.86.05-.71-.23-1.34-1.33-1.41-2.53-.04-.6.07-1.18.27-1.67.19-.49.49-.84.84-.92.35-.09.61.11.69.3.09.18.06.32.09.33.02.02.14-.12.08-.39-.03-.13-.11-.29-.27-.41-.16-.12-.4-.18-.65-.15-.51.05-.96.54-1.18,1.07-.25.53-.38,1.19-.34,1.86.09,1.34.81,2.57,1.78,2.81.47.11.86-.05,1.05-.21.2-.17.23-.32.21-.33Z"/>
          </g>
          <g>
            <g>
              <g>
                <path class="cls-20" d="m618.51,186.07c.03.73-.57,1.36-1.34,1.4-.76.04-1.4-.52-1.43-1.25-.03-.73.57-1.36,1.34-1.4.76-.04,1.41.52,1.43,1.25Z"/>
                <path class="cls-20" d="m618.82,184.51c-.17.18-1.22-.6-2.72-.59-1.49-.02-2.59.75-2.75.57-.08-.08.1-.41.57-.76.47-.35,1.27-.68,2.2-.68.93,0,1.71.35,2.16.7.46.35.61.68.53.76Z"/>
              </g>
              <g>
                <path class="cls-20" d="m603.89,186.42c.03.73-.57,1.36-1.34,1.4-.76.04-1.4-.52-1.43-1.25-.03-.73.57-1.36,1.34-1.4.76-.04,1.41.52,1.43,1.25Z"/>
                <path class="cls-20" d="m604.14,184.78c-.17.18-1.22-.6-2.72-.59-1.49-.02-2.59.75-2.75.57-.08-.08.09-.41.57-.75.47-.35,1.27-.68,2.2-.68.93,0,1.71.35,2.16.7.46.35.61.68.53.76Z"/>
              </g>
              <path class="cls-20" d="m609.56,195.86c0-.08.92-.25,2.43-.44.38-.04.74-.12.81-.38.09-.28-.07-.69-.25-1.13-.36-.92-.73-1.89-1.13-2.9-1.57-4.13-2.7-7.53-2.53-7.59.17-.06,1.57,3.24,3.14,7.37.38,1.02.74,1.99,1.08,2.92.14.43.39.92.2,1.5-.1.28-.38.49-.63.56-.24.07-.46.08-.65.09-1.51.08-2.45.09-2.46,0Z"/>
              <path class="cls-20" d="m605.16,196.89c.24-.01.25,1.61,1.63,2.76,1.38,1.15,3.11.97,3.13,1.2.02.1-.38.31-1.11.33-.72.02-1.76-.21-2.61-.91-.85-.71-1.21-1.65-1.27-2.31-.06-.68.12-1.08.23-1.07Z"/>
            </g>
            <path class="cls-20" d="m604.52,178.93c-.15.41-1.64.21-3.39.42-1.76.18-3.17.69-3.4.32-.1-.17.14-.56.71-.95.57-.39,1.47-.77,2.52-.88,1.05-.11,2.01.05,2.65.31.64.26.97.58.9.77Z"/>
            <path class="cls-20" d="m618.27,180.18c-.26.34-1.29-.01-2.53-.03-1.24-.06-2.28.23-2.53-.13-.11-.17.06-.51.52-.83.45-.32,1.21-.58,2.06-.56.85.03,1.59.33,2.02.68.44.35.58.7.46.86Z"/>
          </g>
        </g>
        <path class="cls-20" d="m625.39,164.7c.1-1.2-.34-2.5-1.32-3.2-.98-.71-2.5-.66-3.3.25.46-1.62-.87-3.49-2.55-3.6-1.58-.1-2.94,1.1-4.47,1.52-1.49.41-3.1.06-4.54-.52-1.44-.58-2.78-1.38-4.24-1.91-3.04-1.11-6.51-.97-9.45.38-2.94,1.35-5.31,3.89-6.45,6.92-2.12-.66-4.54.41-5.85,2.21-1.31,1.8-1.65,4.16-1.39,6.38.18,1.49.61,2.94,1.11,4.36,0,.12-.01.25-.01.37.1,5.34.7,11.62,2.98,11.65,3.97.06,3.03-7.42,3.03-7.42,4.88-1.88,3.06-9.19,4.28-10.3,1.22-1.11,3.77-3.68,13.98,1.53,3.96,2.03,9.23,1.96,12.11,1.31.08-.02.17-.03.25-.05.02,0,.04,0,.06-.01.03,0,.05-.03.08-.03.92-.24,1.8-.59,2.62-1.11.92-.59,1.77-1.38,2.16-2.4.39-1.02.24-2.3-.56-3.04.75-.95,1.34-2.06,1.45-3.27Z"/>
      </g>
      <g>
        <g>
          <path class="cls-9" d="m577.84,225.58c3.27-.63,6.46-1.81,10.31-1.98h0c8.3,2.57,16.6,2.57,24.9.01,1.01.13,2.41.26,4.18.47,10.82,1.28,14.97,3.56,22.74,11.2l-.85,43.79s2.61,49.82,2.42,57.87h-73.93l-.06-33.79.02-9.2-24.34,8.84,2.22-12.77s10.9-42.32,12.59-48.03c2.06-6.93,9.48-14.45,19.79-16.42Z"/>
          <path class="cls-9" d="m554.38,290.75l36.44-5.18,6.93,12.41-33.87,15.27c-1.89.85-3.94,1.29-6.01,1.29h0c-5.93,0-11.28-3.58-13.53-9.07l-1.1-2.67,11.14-12.05Z"/>
          <path class="cls-17" d="m623.64,279.61l-.79-.59c-4.1-3.07-9.31-4.28-14.34-3.31h0c-4.1.79-7.94,2.59-11.17,5.24l-6.24,5.14,6.64,11.9,4.52-6.32s4.22,5.72,4.97,5.12c.75-.6,1.66-2.41,1.66-2.41l-3.01-4.22,7.23,1.51,10.54-4.82-4.52-5.72,4.52,1.51v-3.01Z"/>
          <path class="cls-9" d="m628.83,226.87s10.3,3.51,14.62,13.41c2.82,6.46,6.97,37.56,6.97,37.56l5.23,10.09c1.25,2.42,1.91,5.1,1.91,7.83v1.54c0,3.91-1.35,7.7-3.81,10.73h0c-2.9,3.56-7.11,5.8-11.69,6.21-5.22.47-11.53.67-12.88-.87-2.38-2.72-5.95-10.03-5.95-10.03l15.22-8.09-6.55-12.14-3.06-56.24Z"/>
          <path class="cls-20" d="m566.41,312.1s.19-.13.59-.33c.45-.22,1.03-.5,1.74-.85,1.6-.75,3.81-1.78,6.54-3.05,5.65-2.58,13.44-6.14,22.33-10.19l-.15.46c-1.38-2.47-2.81-5.02-4.27-7.64-.91-1.63-1.81-3.24-2.65-4.76l.32.17c-10.55,1.04-19.89,1.95-26.69,2.62-3.31.3-5.99.54-7.93.71-.88.07-1.59.12-2.14.16-.49.03-.75.04-.75.01s.25-.07.74-.14c.55-.07,1.26-.16,2.13-.28,1.94-.22,4.61-.53,7.91-.91,6.79-.72,16.13-1.72,26.67-2.84l.22-.02.11.19c.85,1.52,1.75,3.13,2.66,4.76,1.46,2.62,2.89,5.18,4.26,7.65l.17.31-.33.14c-8.92,3.97-16.74,7.45-22.42,9.98-2.76,1.2-5,2.17-6.62,2.88-.73.31-1.32.55-1.79.75-.41.16-.63.24-.64.22Z"/>
          <path class="cls-20" d="m572.88,287.15c-.18,0-.33-6.51-.33-14.55s.15-14.55.33-14.55.33,6.51.33,14.55-.15,14.55-.33,14.55Z"/>
          <path class="cls-20" d="m635.59,296.88s.39-.12,1.11-.17c.72-.04,1.77-.12,3.07.18.64.16,1.37.45,1.93,1.09.52.65.85,1.43,1.01,2.32.15.88.1,1.85-.25,2.78-.34.93-1.01,1.76-1.84,2.36-1.71,1.19-3.63,1.53-5.28,1.88-1.68.32-3.22.44-4.52.44-2.61.03-4.15-.63-4.1-.72.03-.09,1.55.39,4.09.24,1.26-.06,2.77-.22,4.41-.57,1.62-.37,3.48-.75,5.01-1.82,1.54-1.06,2.15-2.93,1.88-4.5-.11-.78-.42-1.53-.83-2.06-.42-.52-1.04-.81-1.63-.99-1.19-.34-2.24-.34-2.94-.38-.71-.02-1.11-.04-1.11-.08Z"/>
          <path class="cls-20" d="m641.63,314.49c0,.08-.98.27-2.62.31-1.62.03-3.93-.12-6.29-1.04-1.16-.46-2.24-1-3.13-1.67-.89-.67-1.52-1.47-1.94-2.19-.82-1.45-1-2.46-.93-2.48.11-.04.45.91,1.33,2.22.45.65,1.06,1.35,1.9,1.95.84.59,1.89,1.09,3.01,1.54,2.25.88,4.47,1.1,6.06,1.19,1.6.08,2.6.06,2.61.16Z"/>
          <path class="cls-20" d="m648.91,282.93c.07.04-.63.88-1.8,2.16-1.17,1.28-2.82,3.03-4.67,4.92-1.85,1.9-3.55,3.59-4.81,4.79-1.25,1.2-2.06,1.91-2.13,1.85-.07-.06.62-.89,1.79-2.18,1.17-1.29,2.82-3.03,4.67-4.93,3.7-3.79,6.82-6.77,6.94-6.62Z"/>
          <path class="cls-20" d="m632.32,276.13c-.18,0-.33-3.72-.33-8.32s.15-8.32.33-8.32.33,3.72.33,8.32-.15,8.32-.33,8.32Z"/>
          <path class="cls-10" d="m642.35,240.44c0,.18-18.66.33-41.67.33s-41.67-.15-41.67-.33,18.65-.33,41.67-.33,41.67.15,41.67.33Z"/>
          <path class="cls-10" d="m644.49,247.08c0,.18-19.66.33-43.91.33s-43.92-.15-43.92-.33,19.66-.33,43.92-.33,43.91.15,43.91.33Z"/>
          <path class="cls-10" d="m639.03,234.39c0,.18-17.13.33-38.25.33s-38.26-.15-38.26-.33,17.13-.33,38.26-.33,38.25.15,38.25.33Z"/>
          <path class="cls-10" d="m642.53,334.57c0,.18-16.77.33-37.45.33s-37.45-.15-37.45-.33,16.76-.33,37.45-.33,37.45.15,37.45.33Z"/>
          <path class="cls-10" d="m642.03,330.31c0,.18-16.54.33-36.95.33s-36.95-.15-36.95-.33,16.54-.33,36.95-.33,36.95.15,36.95.33Z"/>
          <path class="cls-10" d="m641.28,324.8c0,.18-16.49.33-36.82.33s-36.82-.15-36.82-.33,16.48-.33,36.82-.33,36.82.15,36.82.33Z"/>
          <path class="cls-10" d="m587.54,302c-.05.06-.84-.53-1.87-1.74-1.03-1.2-2.23-3.08-3.04-5.37-.81-2.29-1.05-4.51-1.01-6.09.04-1.59.28-2.54.36-2.53.22,0-.34,3.93,1.28,8.39,1.55,4.48,4.45,7.19,4.28,7.33Z"/>
          <path class="cls-10" d="m584.12,304.04c-.05.05-.91-.59-2.02-1.92-1.11-1.32-2.41-3.37-3.29-5.88-.87-2.51-1.12-4.93-1.07-6.65.05-1.73.32-2.77.39-2.76.22,0-.43,4.3,1.31,9.19,1.67,4.92,4.86,7.88,4.68,8.02Z"/>
          <path class="cls-10" d="m580.84,305.7c-.04.05-1.01-.56-2.27-1.92-1.25-1.35-2.7-3.53-3.58-6.22-.88-2.7-.99-5.31-.78-7.14.21-1.84.63-2.91.69-2.89.11.03-.14,1.13-.22,2.92-.09,1.79.1,4.29.95,6.89.86,2.6,2.18,4.73,3.31,6.12,1.13,1.4,1.98,2.14,1.91,2.23Z"/>
          <path class="cls-10" d="m627.8,308.37s.38.3,1.12.7c.73.41,1.92.78,3.42.86,1.5.09,3.33-.08,5.32-.35,1.96-.28,4.17-.93,5.58-2.73,1.42-1.75,1.93-4.02,1.66-5.95-.28-1.94-1.28-3.52-2.31-4.59-2.14-2.17-4.15-2.52-4.08-2.66,0-.03.49.02,1.31.33.81.31,1.96.9,3.1,1.99,1.12,1.08,2.24,2.73,2.58,4.84.32,2.08-.19,4.54-1.75,6.46-.78.95-1.78,1.68-2.85,2.11-1.06.45-2.14.66-3.16.8-2.04.24-3.88.36-5.45.21-1.56-.15-2.8-.6-3.52-1.11-.73-.49-1.01-.9-.99-.92Z"/>
          <path class="cls-10" d="m641.07,291.56s.14-.04.41-.04c.27,0,.66.05,1.16.2.98.3,2.29,1.13,3.42,2.58,1.13,1.44,2.15,3.37,2.85,5.68.33,1.16.53,2.45.42,3.78-.12,1.33-.58,2.69-1.36,3.87-1.58,2.38-3.99,3.84-6.29,4.57-2.32.72-4.51.79-6.31.73-1.8-.08-3.24-.29-4.23-.45-.99-.17-1.53-.29-1.52-.33.01-.13,2.22.24,5.77.31,1.77,0,3.9-.12,6.11-.84,2.17-.72,4.45-2.14,5.92-4.35.73-1.09,1.15-2.33,1.27-3.56.12-1.23-.06-2.44-.36-3.56-.64-2.23-1.6-4.15-2.63-5.56-1.04-1.42-2.22-2.26-3.13-2.62-.91-.35-1.48-.34-1.48-.4Z"/>
          <polygon class="cls-20" points="612.51 278.52 589.32 306.6 591.1 308.53 628.73 302.79 647.39 274.71 645.66 273.15 612.51 278.52"/>
          <path class="cls-17" d="m637.11,285.93h0c-1.48,0-2.81.9-3.34,2.28-.56,1.45-1.37,3.15-2.28,3.64-1.67.91-4.56,1.64-6.08.9-1.52-.74-7.6-6.22-8.67-5.61-1.06.61-1.98,1.98-.91,3.19s6.69,4.87,5.63,6.08c-1.06,1.22-12.92-4.14-14.75-3.66s-2.89,1.59-1.82,2.33c1.06.73,9.12,3.77,9.58,4.84,0,0-12.16-3.19-12.62-2.43-.46.76-1.22,1.98,0,2.43s11.71,3.19,12.62,3.65c.91.46,4.06,1.37,4.69,1.37.33,0,2.71.8,4.9,1.55,2.46.85,5.15.78,7.56-.2l1.23-.5c1.92-.78,3.12-2.7,3-4.76l-.25-4.15,1.33-3.42.19-7.52Z"/>
        </g>
        <path class="cls-7" d="m647.44,274.85s-.24.08-.69.17c-.53.09-1.2.21-2.01.36-1.84.3-4.36.7-7.42,1.19-3.16.48-6.89,1.05-11.01,1.68-2.07.31-4.25.64-6.5.98-2.22.37-4.52.99-6.3,2.55-1.78,1.54-3.13,3.52-4.59,5.27-1.43,1.78-2.8,3.49-4.12,5.13-2.62,3.25-4.99,6.18-7,8.67-1.97,2.4-3.58,4.36-4.76,5.81-.53.63-.97,1.14-1.32,1.56-.31.35-.48.53-.5.51-.02-.01.12-.22.39-.6.32-.43.73-.97,1.22-1.64,1.14-1.48,2.7-3.49,4.6-5.94,1.98-2.52,4.31-5.48,6.89-8.76,1.3-1.65,2.67-3.37,4.09-5.16,1.45-1.75,2.78-3.73,4.67-5.37,1.91-1.67,4.38-2.32,6.62-2.69,2.26-.33,4.44-.65,6.52-.95,4.13-.58,7.86-1.1,11.03-1.54,3.07-.41,5.6-.74,7.45-.98.82-.09,1.49-.17,2.03-.23.47-.05.71-.06.71-.04Z"/>
        <path class="cls-3" d="m629.84,281c-.39.23-.79.48-1.04.85-.26.37-.33.91-.05,1.26.36.45,1.09.37,1.55.03.3-.22.53-.54.6-.9.07-.36-.04-.77-.32-1.01-.28-.24-.73-.27-1.02-.04"/>
      </g>
    </g>
  </g>
  <g id="Character_1" data-name="Character 1">
    <g>
      <g>
        <rect class="cls-7" x="320.65" y="312.96" width="60.75" height="122.53"/>
        <path class="cls-7" d="m323.48,435.2h0c-5.24,0-9.48-4.24-9.48-9.48v-103.28c0-5.24,4.24-9.48,9.48-9.48h0c5.24,0,9.48,4.24,9.48,9.48v103.28c0,5.24-4.24,9.48-9.48,9.48Z"/>
        <path class="cls-20" d="m328.43,317.89s.03.1.05.3c.02.24.05.54.09.9.07.85.16,2,.28,3.45.22,3.06.53,7.39.91,12.71.71,10.79,1.68,25.59,2.75,41.94,1.01,16.39,1.98,31.21,2.5,41.97.2,5.39-.45,9.81-1.58,12.63-.52,1.42-1.12,2.44-1.54,3.12-.21.3-.38.54-.52.74-.12.16-.19.24-.2.24-.1-.05,1.03-1.35,2-4.19,1.03-2.81,1.6-7.16,1.34-12.52-.7-10.79-1.65-25.59-2.7-41.95-.99-16.36-1.89-31.16-2.55-41.96-.29-5.32-.53-9.66-.69-12.72-.06-1.46-.12-2.61-.15-3.46,0-.36-.02-.66-.02-.9,0-.2,0-.31.02-.31Z"/>
        <g>
          <g>
            <g>
              <rect class="cls-7" x="375.96" y="450.7" width="9.79" height="117.33"/>
              <path class="cls-7" d="m449.22,450.7h-140.06c0-8.4,6.81-15.2,15.2-15.2h109.66c8.4,0,15.2,6.81,15.2,15.2h0Z"/>
              <path class="cls-20" d="m389.45,451c0,.2-3.85.36-8.59.36s-8.59-.16-8.59-.36,3.85-.36,8.59-.36,8.59.16,8.59.36Z"/>
            </g>
            <path class="cls-7" d="m423.69,578.66h-1.39c0-22.98-18.69-41.67-41.67-41.67s-41.67,18.69-41.67,41.67h-1.39c0-23.74,19.31-43.06,43.05-43.06s43.05,19.31,43.05,43.06Z"/>
            <circle class="cls-20" cx="338.28" cy="577.87" r="6.46"/>
            <path class="cls-7" d="m429.73,578.17c0,3.57-2.89,6.46-6.46,6.46s-6.46-2.89-6.46-6.46,2.89-6.46,6.46-6.46,6.46,2.89,6.46,6.46Z"/>
            <path class="cls-7" d="m423.28,568.03c0,.2-18.74.36-41.84.36s-41.85-.16-41.85-.36,18.73-.36,41.85-.36,41.84.16,41.84.36Z"/>
          </g>
          <path class="cls-20" d="m365.74,435.23s-.75.1-2.12.15c-1.49.04-3.43.09-5.77.15-4.87.1-11.59.18-19.02.24-3.71.02-7.24.05-10.48.07-3.22.02-6.1.15-8.43.77-2.34.58-4.03,1.61-5.1,2.43-1.08.81-1.56,1.4-1.62,1.35-.02-.02.1-.17.33-.44.23-.28.59-.67,1.12-1.12,1.03-.9,2.75-2.03,5.14-2.69,2.38-.7,5.33-.87,8.54-.93,3.21-.08,6.76-.09,10.47-.12,7.43-.05,14.16-.06,19.03-.03,2.34.03,4.28.05,5.77.07,1.36.03,2.11.07,2.11.12Z"/>
        </g>
      </g>
      <g>
        <g>
          <g>
            <g>
              <path class="cls-13" d="m361.61,307.09h0c7.29,0,13.34-4.76,13.44-26.91.02-4.46-.13-8.31-.13-8.31,0,0,10.52-.96,11.29-11.16.77-10.2.19-33.87.19-33.87h0c-11.74-5.81-25.51-4.81-36.41,2.4l-1.62,1.07.5,50.14c.07,7.03,5.55,26.64,12.73,26.64Z"/>
              <path class="cls-5" d="m374.95,271.72s-6.62.13-13.34-4.6c0,0,2.75,7.54,13.2,7.25l.14-2.65Z"/>
            </g>
            <g>
              <g>
                <g>
                  <path class="cls-20" d="m383.91,243.29c.03.76-.6,1.4-1.41,1.44-.8.04-1.48-.53-1.51-1.29-.03-.76.6-1.4,1.41-1.44.8-.04,1.48.54,1.51,1.29Z"/>
                  <path class="cls-20" d="m384.23,241.69c-.18.19-1.29-.62-2.86-.61-1.57-.02-2.72.77-2.89.59-.08-.08.1-.42.6-.78.49-.36,1.34-.7,2.32-.7.98,0,1.8.36,2.28.72.48.36.65.7.56.78Z"/>
                </g>
                <g>
                  <path class="cls-20" d="m368.52,243.66c.03.76-.6,1.4-1.41,1.44-.8.04-1.48-.53-1.51-1.29-.03-.76.6-1.4,1.41-1.44.8-.04,1.48.54,1.51,1.29Z"/>
                  <path class="cls-20" d="m368.78,241.97c-.18.19-1.29-.62-2.86-.61-1.57-.02-2.72.77-2.89.59-.08-.08.1-.42.6-.78.49-.36,1.34-.7,2.32-.7.98,0,1.8.36,2.28.72.48.36.65.7.56.78Z"/>
                </g>
                <path class="cls-20" d="m374.48,253.39c0-.09.97-.25,2.55-.45.4-.04.78-.12.85-.39.09-.28-.07-.71-.27-1.17-.38-.95-.77-1.95-1.19-2.99-1.65-4.26-2.84-7.77-2.66-7.83.18-.06,1.65,3.34,3.3,7.6.4,1.05.78,2.05,1.14,3.01.15.45.41.95.21,1.54-.11.29-.4.51-.66.57-.26.08-.48.08-.68.09-1.59.08-2.58.09-2.59,0Z"/>
                <path class="cls-20" d="m369.86,254.46c.26-.01.26,1.66,1.72,2.84,1.46,1.19,3.28,1,3.29,1.24.02.1-.4.32-1.17.35-.75.03-1.85-.21-2.75-.94-.89-.73-1.27-1.7-1.33-2.38-.07-.7.13-1.11.24-1.1Z"/>
              </g>
              <path class="cls-20" d="m369.19,235.94c-.15.42-1.72.22-3.57.44-1.85.18-3.33.71-3.58.33-.11-.18.15-.57.75-.98.6-.4,1.55-.79,2.65-.91,1.11-.12,2.12.05,2.79.32.68.27,1.02.6.95.79Z"/>
              <path class="cls-20" d="m383.65,237.23c-.28.35-1.36-.01-2.66-.03-1.3-.06-2.4.23-2.66-.13-.11-.18.06-.53.54-.86.47-.33,1.27-.6,2.16-.57.89.03,1.67.34,2.12.7.46.36.61.72.49.89Z"/>
            </g>
          </g>
          <path class="cls-20" d="m386.73,224.87c-.15-1.59-.75-3.11-1.59-4.45.64-1.49.52-3.33-.54-4.58-1.5-1.75-4.46-1.84-6.16-.33-.03,0-.06-.02-.08-.03.51-.9.12-2.23-.74-2.9-1-.77-2.35-.87-3.61-.85-2.35.04-7.88,1.9-12.12,3.49-.27.05-.55.09-.82.15-3.3.67-7.13,2-9.69,4.18-3.19,2.72-4.98,6.67-6.06,10.72-1.08,4.06-1.1,8.31-.27,15.2,1.27-1.13,5.75-3.96,6.41-2.39.38.89.26,1.9.34,2.87.09.96.53,2.04,1.46,2.3.75.21,1.57-.24,2.01-.88.44-.64.58-1.45.64-2.23.25-3.18-.54-6.4-.03-9.54.5-3.1,2.3-5.97,4.88-7.77,2.58-1.79,5.9-2.48,8.98-1.86,1.91.38,3.75,1.24,5.69,1.17,2.79-.11,5.65-2.12,8.17-.91.5.24,1,.47,1.48.75.95.56,1.42,1.11,1.65.61.17-.36.09-1.83,0-2.71Z"/>
          <g>
            <path class="cls-13" d="m351.06,241.6c-.19-.07-6.59-.89-5.99,6.52s8.04,4.36,8.03,4.14-2.04-10.66-2.04-10.66Z"/>
            <path class="cls-5" d="m350.58,249.84s-.12.1-.34.22c-.21.11-.58.21-.98.1-.82-.22-1.59-1.41-1.74-2.74-.07-.67.02-1.33.22-1.88.19-.56.51-.97.91-1.07.39-.12.7.09.81.29.12.2.08.35.12.36.02.02.15-.14.07-.44-.04-.14-.15-.31-.34-.44-.19-.13-.47-.18-.74-.13-.58.09-1.06.65-1.28,1.26-.25.61-.37,1.34-.29,2.1.17,1.49,1.06,2.82,2.18,3.05.54.09.97-.1,1.19-.29.22-.2.25-.37.22-.38Z"/>
          </g>
        </g>
        <g>
          <g>
            <g>
              <path class="cls-12" d="m421.43,553.54l5.77-8.08-22.2-15.54-9.19,12.47,1.27,1.09c5.7,4.81,29.31,24.07,34.18,25.88,5.43,2.03-9.83-15.82-9.83-15.82Z"/>
              <g class="cls-4">
                <path class="cls-2" d="m403.74,548.12c1.02-1.99,1.5-4.42.89-6.6-.61-2.19-1.47-3.81-4.2-5.4l-4.37,5.99,7.68,6.01Z"/>
              </g>
            </g>
            <g class="cls-4">
              <path class="cls-2" d="m428.64,562.57s5.05,6.65,3.46,7.09c-1.58.43-26.16-18.15-36.3-27.27l.39-.45,28.49,21.91s2.66-2.17,3.96-1.28Z"/>
            </g>
            <path class="cls-20" d="m395.87,541.67s.11.12.34.32c.31.26.64.55,1.02.87,1.03.85,2.29,1.89,3.79,3.12,3.22,2.61,7.71,6.17,12.75,9.99,5.05,3.82,9.69,7.18,13.08,9.56,1.59,1.1,2.94,2.04,4.03,2.8.41.28.78.52,1.11.74.26.17.39.25.4.24,0,0-.12-.11-.36-.29-.32-.24-.68-.5-1.07-.79-1.08-.78-2.41-1.74-3.97-2.88-3.35-2.43-7.97-5.82-13.01-9.63-5.04-3.82-9.55-7.34-12.8-9.91-1.52-1.2-2.8-2.22-3.85-3.04-.39-.3-.74-.57-1.05-.82-.24-.18-.37-.28-.38-.27Z"/>
            <path class="cls-20" d="m424.43,564.18c.07.07.83-.8,2.11-1.28,1.28-.5,2.44-.36,2.44-.46.03-.08-1.19-.38-2.56.16-1.38.52-2.07,1.55-1.99,1.58Z"/>
            <path class="cls-20" d="m420.47,556.22c.03.08.61-.05,1.29-.3.68-.25,1.21-.52,1.17-.6-.03-.08-.61.05-1.29.3-.68.25-1.21.52-1.17.6Z"/>
            <path class="cls-20" d="m419.41,554c0,.09.52.12,1.13.08.62-.05,1.11-.16,1.1-.24,0-.09-.52-.12-1.13-.08-.62.05-1.11.16-1.1.24Z"/>
            <path class="cls-20" d="m419.81,551.17c-.05.07.4.51,1.02.99.62.48,1.16.81,1.21.74.05-.07-.4-.51-1.02-.99-.62-.48-1.16-.81-1.21-.74Z"/>
            <path class="cls-20" d="m420.49,549.48c-.07.04.29.7.98,1.3.69.61,1.39.89,1.42.81.04-.08-.56-.47-1.21-1.05-.66-.57-1.12-1.12-1.2-1.06Z"/>
            <path class="cls-20" d="m422.59,554.93s.46.49,1.39,1.04c.46.27,1.04.55,1.71.8.34.11.68.25,1.1.3.2.01.45,0,.66-.16.21-.16.27-.47.2-.7-.82-1.67-2.69-1.94-3.69-1.64-.53.14-.9.38-1.14.56-.23.19-.33.33-.31.34.04.05.5-.46,1.5-.68.5-.11,1.12-.1,1.75.14.6.23,1.32.71,1.57,1.36.1.33-.18.51-.53.47-.34-.03-.7-.16-1.02-.26-.66-.22-1.23-.47-1.7-.71-.94-.48-1.47-.88-1.5-.84Z"/>
            <path class="cls-20" d="m422.9,555.27s.47-.16.87-.82c.19-.32.35-.76.37-1.28-.02-.49-.02-1.14-.63-1.56-.35-.2-.78.04-.9.3-.15.26-.2.54-.22.78-.05.49-.02.94.03,1.31.12.74.34,1.16.38,1.15.05-.01-.09-.45-.15-1.17-.03-.36-.03-.79.04-1.25.03-.43.29-1.04.68-.84.37.23.47.83.48,1.26,0,.46-.12.86-.27,1.18-.31.63-.71.89-.67.93Z"/>
            <path class="cls-20" d="m400.67,536.23c-.03.05.66.41,1.55,1.26.88.83,1.93,2.23,2.41,4.02.48,1.79.26,3.5-.1,4.64-.36,1.15-.78,1.78-.73,1.81.02.01.14-.13.32-.43.18-.29.42-.73.63-1.31.43-1.15.69-2.93.2-4.79-.5-1.87-1.62-3.3-2.57-4.11-.47-.41-.9-.7-1.21-.87-.31-.17-.49-.24-.5-.22Z"/>
            <path class="cls-20" d="m408,548.11c-.06.06,1.17,1.35,2.91,2.68,1.74,1.34,3.29,2.21,3.34,2.13.05-.08-1.42-1.06-3.14-2.39-1.72-1.32-3.04-2.5-3.11-2.43Z"/>
            <path class="cls-20" d="m403.79,544.91c-.09.01-.11.38-.2.8-.09.43-.23.76-.15.82.07.05.36-.25.47-.74.11-.49-.03-.89-.12-.88Z"/>
            <path class="cls-20" d="m403.67,541.77c-.09.01-.12.34-.06.72.06.39.17.7.26.69.09-.01.12-.34.06-.72-.06-.39-.17-.7-.26-.69Z"/>
            <path class="cls-20" d="m402.06,539.17c-.04.08.25.3.48.64.24.34.34.69.43.68.09,0,.13-.43-.16-.86-.29-.43-.72-.55-.75-.47Z"/>
            <path class="cls-20" d="m400.76,537.52c-.08.05-.03.25.09.45.13.2.29.33.37.28.08-.05.03-.25-.09-.45-.13-.2-.29-.33-.37-.28Z"/>
          </g>
          <g class="cls-16">
            <polygon points="401.31 534.92 423.74 550.38 424.39 549.52 402.59 533.12 401.31 534.92"/>
          </g>
        </g>
        <g>
          <g>
            <g>
              <path class="cls-12" d="m529.17,579.14l-2.08-9.47-25.79,5.9,3.01,14.82,1.62-.21c7.22-.98,36.62-5.47,41.12-7.8,5.02-2.6-17.89-3.25-17.89-3.25Z"/>
              <g class="cls-4">
                <path class="cls-2" d="m513.66,588.39c-.77-2.05-2.21-3.98-4.2-4.97-1.98-.99-3.72-1.43-6.66-.49l1.47,7.09,9.39-1.63Z"/>
              </g>
            </g>
            <g class="cls-4">
              <path class="cls-2" d="m540.44,579.83s8.12.7,7.4,2.13c-.72,1.43-30.27,7.06-43.52,8.43l-.07-.57,34.52-6.28s.17-3.35,1.67-3.7Z"/>
            </g>
            <path class="cls-20" d="m503.84,589.88s.16,0,.45-.04c.39-.05.81-.11,1.29-.17,1.29-.19,2.87-.42,4.74-.7,4-.62,9.51-1.54,15.58-2.69,6.07-1.15,11.54-2.31,15.49-3.21,1.84-.43,3.4-.79,4.67-1.09.47-.12.88-.22,1.26-.32.29-.08.44-.12.44-.13,0-.01-.16.01-.45.07-.38.08-.8.16-1.28.26-1.27.27-2.84.6-4.69.99-3.96.84-9.43,1.96-15.5,3.12-6.06,1.15-11.57,2.11-15.56,2.78-1.86.31-3.44.58-4.73.8-.48.08-.9.16-1.28.23-.29.06-.45.09-.44.1Z"/>
            <path class="cls-20" d="m538.84,583.92c.1,0-.04-1.12.46-2.37.48-1.25,1.34-2,1.27-2.07-.03-.07-1.05.62-1.57,1.96-.53,1.34-.24,2.51-.16,2.48Z"/>
            <path class="cls-20" d="m530.48,581.58c.08.03.36-.47.63-1.13s.42-1.21.33-1.24c-.08-.03-.36.47-.63,1.13-.27.65-.42,1.21-.33,1.24Z"/>
            <path class="cls-20" d="m528.18,580.9c.07.05.43-.29.8-.77.37-.48.62-.91.55-.96-.07-.05-.43.29-.8.77-.37.48-.62.91-.55.96Z"/>
            <path class="cls-20" d="m526.39,578.76c.02.09.63.05,1.38-.09.75-.13,1.34-.31,1.33-.4s-.63-.05-1.38.09c-.75.13-1.34.31-1.33.4Z"/>
            <path class="cls-20" d="m525.62,577.16c-.01.08.7.25,1.59.14.89-.1,1.55-.42,1.52-.5-.03-.09-.71.09-1.55.19-.84.1-1.54.08-1.55.17Z"/>
            <path class="cls-20" d="m530.93,579.2s.66-.01,1.66-.33c.5-.16,1.08-.39,1.7-.72.3-.18.63-.32.94-.6.14-.14.3-.32.32-.58.02-.26-.16-.51-.38-.6-1.74-.5-3.17.68-3.61,1.59-.25.47-.32.9-.34,1.19-.01.29.02.45.04.45.06,0,0-.66.49-1.53.25-.43.66-.88,1.25-1.18.55-.28,1.38-.49,2.01-.25.3.14.26.47,0,.69-.24.23-.57.4-.86.57-.59.33-1.15.58-1.63.76-.96.36-1.6.49-1.59.54Z"/>
            <path class="cls-20" d="m531.38,579.2s.19-.45-.02-1.17c-.11-.35-.32-.75-.68-1.1-.36-.31-.84-.73-1.54-.57-.38.12-.48.59-.37.85.08.28.26.5.42.67.32.36.67.64.97.84.62.4,1.06.51,1.08.48.02-.05-.39-.23-.94-.66-.28-.21-.59-.49-.88-.85-.29-.3-.57-.89-.17-1.04.41-.12.91.21,1.23.48.33.3.55.65.67.97.25.64.18,1.09.24,1.09Z"/>
            <path class="cls-20" d="m503.04,582.84c.02.06.73-.21,1.92-.3,1.18-.09,2.88.06,4.49.89,1.61.83,2.71,2.11,3.3,3.11.6,1.01.78,1.73.84,1.72.02,0,0-.19-.1-.51-.09-.32-.26-.78-.54-1.31-.55-1.06-1.66-2.42-3.34-3.28-1.68-.86-3.45-.99-4.66-.83-.61.07-1.09.2-1.42.31-.32.11-.49.19-.49.21Z"/>
            <path class="cls-20" d="m516.44,585.3c0,.08,1.74.03,3.85-.35,2.11-.38,3.75-.94,3.73-1.02-.03-.09-1.7.34-3.78.71-2.09.38-3.8.57-3.79.66Z"/>
            <path class="cls-20" d="m511.37,586.26c-.05.07.21.32.45.67.25.34.4.67.49.64.08-.02.06-.43-.23-.82-.28-.4-.67-.56-.71-.49Z"/>
            <path class="cls-20" d="m509.01,584.29c-.05.07.17.3.49.52.32.21.62.33.67.26.05-.07-.17-.3-.49-.52-.32-.21-.62-.33-.67-.26Z"/>
            <path class="cls-20" d="m506.08,583.75c.03.08.38.01.78.07.41.05.72.2.77.13.06-.06-.23-.38-.73-.44-.5-.07-.87.16-.83.24Z"/>
            <path class="cls-20" d="m504.03,583.62c-.02.09.16.19.39.23.23.04.43,0,.45-.08.02-.08-.16-.19-.39-.23-.23-.04-.43,0-.45.08Z"/>
          </g>
          <g class="cls-16">
            <polygon points="502.51 581.51 528.4 575.39 528.2 574.36 502.04 579.41 502.51 581.51"/>
          </g>
        </g>
        <path class="cls-5" d="m462.02,349.42c0-.48,4.44-4.68,5.16-4.92s13.67-5.64,13.91-5.04c.24.6,1.8,3.55-.84,4.95l-2.04.68,7.44.6s8.27,6.12,8.15,7.44c-.12,1.32-1.2,2.16-1.92,1.56-.72-.6,1.92,4.2,1.92,4.2,0,0,0,2.04-1.08,1.68-1.08-.36-2.76-2.28-2.76-2.28,0,0,1.56,2.52,1.08,3-.48.48-2.88.6-3.12,0-.24-.6-.6-1.68-.6-1.68l-1.44.12v1.97l-21.95.67-1.92-12.95Z"/>
        <g>
          <polygon class="cls-10" points="376.96 288.86 383.66 296.8 410.46 343.71 462.74 348.88 463.88 364 403.67 369.69 370.06 308.86 376.96 288.86"/>
          <path class="cls-18" d="m382.25,311.74l-5.18-19.57-.11-6.37-29.09-13.21-5.59,6.95.67.36c-2.29,2.41-19.23,20.71-18.22,34.2.91,12.17,26.53,88.82,26.53,88.82l58.38-17.07-27.4-74.1Z"/>
          <path class="cls-8" d="m376.43,292.44l-1.64,8.02,4.27,8.02v5.94l30.59,71.44,9.05,3.04,1.53-6.13s-25.47-43.46-29.87-55.72c-4.4-12.25-10.91-29.87-10.91-29.87l-3.01-4.74Z"/>
          <path class="cls-18" d="m330,328.44c0,.76,52.73,51.72,52.73,51.72l71.24-13.94-2.28-15.21-48.64,1.32c-5.32.21-9.55-1.56-12.79-5.78-10.43-13.55-33.05-42.93-33.64-43.71-.76-1.01-26.62,25.61-26.62,25.61Z"/>
          <path class="cls-7" d="m451.69,351s.07.31.17.96c.11.67.26,1.63.47,2.89.41,2.6,1.01,6.4,1.78,11.34l.02.14-.14.03c-12.4,2.4-32.22,6.23-56.87,10.99-1.54.3-3.1.6-4.68.9-1.59.31-3.25.5-4.91.43-3.34-.11-6.72-1.08-9.69-2.91-1.48-.91-2.86-2.02-4.08-3.32-1.2-1.3-2.32-2.64-3.5-3.98-2.33-2.68-4.71-5.41-7.12-8.18-9.64-11.09-19.86-22.84-30.45-35.02l-.04-.05-.02-.05c-.07-.17-.14-.36-.21-.55-1.03-2.62-1.69-5.4-1.71-8.21-.05-2.8.59-5.63,2.03-8.02,1.41-2.42,3.56-4.26,5.86-5.68,2.34-1.37,4.95-2.3,7.62-2.53,2.67-.27,5.39.22,7.76,1.38,2.38,1.16,4.36,2.92,6.06,4.81,1.71,1.9,3.16,3.95,4.59,5.97,1.44,2.01,2.86,4,4.26,5.96,5.67,7.81,11.28,15.06,16.7,21.7,1.37,1.65,2.71,3.28,4.03,4.88,1.35,1.56,2.57,3.22,4.05,4.49,1.47,1.29,3.34,1.9,5.2,2.12,1.87.23,3.73.18,5.57.15,14.61-.22,26.43-.4,34.64-.53,4.05-.05,7.21-.09,9.37-.12,1.05,0,1.85-.01,2.42-.02.54,0,.81.01.81.01,0,0-.3.02-.86.04-.58.02-1.4.04-2.46.07-2.18.06-5.35.14-9.42.24-8.17.19-19.95.45-34.51.78-1.81.04-3.7.1-5.63-.13-1.91-.22-3.92-.86-5.48-2.22-1.56-1.34-2.77-2.98-4.13-4.54-1.32-1.59-2.67-3.22-4.05-4.87-5.45-6.64-11.09-13.89-16.78-21.69-1.41-1.96-2.83-3.95-4.27-5.96-1.42-2.02-2.87-4.05-4.55-5.91-1.67-1.85-3.58-3.55-5.86-4.65-2.26-1.1-4.85-1.57-7.41-1.31-5.09.49-10.17,3.37-12.95,7.88-1.37,2.27-1.98,4.97-1.93,7.66.02,2.7.66,5.4,1.66,7.96.07.18.14.37.21.54l-.06-.09c10.58,12.19,20.8,23.95,30.43,35.04,2.41,2.77,4.78,5.5,7.11,8.19,1.17,1.33,2.31,2.7,3.47,3.97,1.17,1.25,2.51,2.34,3.94,3.22,2.87,1.77,6.15,2.73,9.39,2.84,1.62.06,3.21-.11,4.78-.41,1.58-.3,3.14-.59,4.68-.89,24.67-4.64,44.51-8.37,56.92-10.71l-.12.16c-.7-4.92-1.24-8.71-1.61-11.29-.18-1.27-.31-2.25-.4-2.93-.09-.66-.12-1.01-.12-1.01Z"/>
          <path class="cls-7" d="m376.96,285.8c.07.02-.2,1.3-.46,3.58-.31,2.27-.43,5.55-1.25,9.43l-.08.4-.36-.21c-3.08-1.77-6.63-3.82-10.41-5.99-6-3.48-11.41-6.67-15.31-9-1.86-1.13-3.41-2.07-4.6-2.8-1.08-.67-1.66-1.07-1.64-1.11.02-.04.65.27,1.77.87,1.22.68,2.81,1.55,4.71,2.61,3.96,2.23,9.41,5.35,15.41,8.83,3.76,2.2,7.3,4.27,10.36,6.06l-.45.19c.86-3.78,1.08-7.08,1.49-9.34.18-1.14.37-2.03.52-2.63.15-.6.26-.91.29-.91Z"/>
        </g>
        <path class="cls-13" d="m482.24,351.03l-12.71-3.48-10.55,5.28h-6l-.96.39,1.71,11.38,1.51.22s1.7,1.2,5.06,1.92c3.36.72,8.27-1.44,8.27-1.44l6.72-3.72,4.8-1.36,3.6,2.08s.36,1.44.36,1.92,1.32,1.08,2.04,1.08.96-1.68.96-1.68l-.84-3.59,1.68,1.55h4.2v-2.64l-9.83-7.91Z"/>
        <g>
          <polygon class="cls-20" points="453.97 434.52 399.18 532.05 428.46 551.91 476.88 465.97 468.72 434.52 453.97 434.52"/>
          <path class="cls-20" d="m351.26,402.91s-6.29,26.5,10.78,31.89c17.07,5.39,105.84,8.2,105.84,8.2l33,136.28,28.25-4.01-24.36-146.06c-1.8-10.22-9.78-18.23-20-20.06-26.33-4.7-74.02-13.34-74.67-14.32-.9-1.35-4.49-8.98-4.49-8.98l-54.34,17.07Z"/>
          <path class="cls-7" d="m478.49,484.65s-.12-.23-.28-.7c-.17-.47-.4-1.16-.65-2.07-.52-1.81-1.17-4.46-1.87-7.75-.68-3.32-1.48-7.23-2.37-11.56-.96-4.31-1.93-9.15-4.11-13.73-1.12-2.23-2.6-4.37-4.85-5.09-2.23-.78-4.55-1.14-6.73-1.47-4.39-.61-8.38-.89-11.72-1.1-3.35-.21-6.07-.31-7.94-.38-.88-.04-1.59-.07-2.16-.09-.49-.03-.75-.05-.75-.07s.26-.05.75-.07c.49-.02,1.22-.04,2.17-.04,1.88,0,4.6.02,7.96.17,3.36.15,7.36.38,11.79.96,2.21.32,4.53.67,6.88,1.47.58.25,1.17.48,1.71.86.53.38,1,.82,1.43,1.3.85.97,1.52,2.1,2.1,3.26,2.23,4.71,3.18,9.57,4.11,13.91.88,4.36,1.58,8.3,2.22,11.59.63,3.3,1.21,5.95,1.65,7.77.43,1.83.74,2.82.68,2.84Z"/>
        </g>
      </g>
    </g>
  </g>
  <g id="Desk">
    <polygon class="cls-7" points="800.93 370.44 448.35 369.17 448.32 379.64 469.25 379.72 468.51 583.62 475.91 583.64 476.64 379.74 767.97 380.79 767.24 584.69 774.63 584.72 775.36 380.82 800.9 380.91 800.93 370.44"/>
    <g>
      <polygon class="cls-10" points="679.83 312.59 699.39 369.74 787.95 369.74 787.3 366.8 751.49 365.69 734.99 312.56 679.83 312.59"/>
      <path class="cls-2" d="m719.08,339.43c.58,2.34-.42,4.64-2.24,5.12-1.82.49-3.77-1.02-4.36-3.36-.58-2.34.42-4.63,2.24-5.12,1.82-.49,3.77,1.02,4.36,3.36Z"/>
    </g>
    <g>
      <polygon class="cls-10" points="592.69 310.99 573.14 368.14 484.58 368.14 485.23 365.2 521.04 364.09 537.54 310.96 592.69 310.99"/>
      <path class="cls-2" d="m553.45,337.83c-.58,2.34.42,4.64,2.24,5.12,1.82.49,3.77-1.02,4.36-3.36.58-2.34-.42-4.63-2.24-5.12-1.82-.49-3.77,1.02-4.36,3.36Z"/>
    </g>
    <g>
      <circle class="cls-7" cx="628.63" cy="348.14" r="10.84" transform="translate(184.05 912.7) rotate(-80.76)"/>
      <rect class="cls-10" x="593.22" y="343.86" width="70.81" height="25.88"/>
      <path class="cls-20" d="m620.45,351c0,.19-5.17.34-11.55.34s-11.55-.15-11.55-.34,5.17-.34,11.55-.34,11.55.15,11.55.34Z"/>
      <path class="cls-20" d="m620.45,354.72c0,.19-5.17.34-11.55.34s-11.55-.15-11.55-.34,5.17-.34,11.55-.34,11.55.15,11.55.34Z"/>
      <path class="cls-20" d="m620.45,358.43c0,.19-5.17.34-11.55.34s-11.55-.15-11.55-.34,5.17-.34,11.55-.34,11.55.15,11.55.34Z"/>
      <path class="cls-20" d="m620.45,362.15c0,.19-5.17.34-11.55.34s-11.55-.15-11.55-.34,5.17-.34,11.55-.34,11.55.15,11.55.34Z"/>
      <path class="cls-20" d="m633.36,369.14c-.19,0-.34-5.57-.34-12.43s.15-12.43.34-12.43.34,5.56.34,12.43-.15,12.43-.34,12.43Z"/>
    </g>
  </g>
</svg>