<?xml version="1.0" encoding="UTF-8"?>
<svg id="OBJECTS" xmlns="http://www.w3.org/2000/svg" viewBox="0 0 1200 600">
  <defs>
    <style>
      .cls-1 {
        fill: #fff;
      }

      .cls-2 {
        fill: #dff1ff;
      }

      .cls-3 {
        fill: #333969;
      }

      .cls-4 {
        fill: #5f9eff;
      }

      .cls-5, .cls-6, .cls-7, .cls-8, .cls-9, .cls-10 {
        fill: none;
      }

      .cls-5, .cls-6, .cls-7, .cls-9, .cls-10 {
        stroke-width: 1.37px;
      }

      .cls-5, .cls-7 {
        stroke: #424242;
      }

      .cls-5, .cls-7, .cls-9 {
        stroke-miterlimit: 10;
      }

      .cls-6, .cls-8, .cls-10 {
        stroke-linejoin: round;
      }

      .cls-6, .cls-9, .cls-10 {
        stroke: #000;
      }

      .cls-11 {
        fill: #db9c7f;
      }

      .cls-12 {
        fill: #7584f1;
      }

      .cls-7, .cls-8, .cls-9, .cls-10 {
        stroke-linecap: round;
      }

      .cls-8 {
        stroke: #1a1c30;
        stroke-width: 1.07px;
      }

      .cls-13 {
        fill: #d3ddf7;
      }

      .cls-14 {
        fill: #282651;
      }

      .cls-15 {
        fill: #73d46d;
      }

      .cls-16 {
        fill: #b8df44;
      }

      .cls-17 {
        fill: #bbdfff;
      }

      .cls-18 {
        fill: #2b387e;
      }
    </style>
  </defs>
  <ellipse class="cls-2" cx="514.45" cy="256.57" rx="319.21" ry="227.54"/>
  <ellipse class="cls-17" cx="859.04" cy="556.83" rx="145.72" ry="20.22"/>
  <ellipse class="cls-17" cx="553.62" cy="566.58" rx="263.25" ry="22.42"/>
  <g>
    <path class="cls-16" d="m603.95,169.24s-4.87,28.27-40.37,64.67c0,0-3.92-4.86,2.87-24.97,6.79-20.11,35.48-46.55,37.5-39.7Z"/>
    <path class="cls-9" d="m603.95,169.24s-31.94,22.85-40.37,64.67c0,0-1.63,14.34,3.28,26.77"/>
    <path class="cls-16" d="m518.09,192.08s8.96-6.79-6.46-23.75c-14.64-16.11-30.15-30.56-60.45-35.85,0,0,9.15,41.05,28.89,50.83,19.75,9.78,38.02,8.77,38.02,8.77Z"/>
    <path class="cls-16" d="m444.54,222.27s31.62,6.9,85.24-11c0,0-3.32-5.54-27.28-7.41-23.96-1.86-64.19,13.8-57.95,18.41Z"/>
    <path class="cls-9" d="m444.54,222.27s37.93-20.08,85.24-11c0,0,4.87,1.22,9.82,7.84"/>
    <path class="cls-16" d="m470.75,250.91s33.83,22.27,87.45,4.38c0,0-10.43-18.86-34.39-20.73-23.96-1.86-59.31,11.75-53.07,16.35Z"/>
    <path class="cls-9" d="m470.75,250.91s36.47-17.01,87.45,4.38c0,0,6,2.67,10.95,9.29"/>
    <path d="m585.27,142.47s9.98-1.2-14.38,21.34c-23.01,21.28-20.08,21.45-20.08,21.45,0,0,8.73-31.85,34.46-42.79Z"/>
    <path class="cls-16" d="m534.07,196.05s7.46,2.88,20.91-9.47c13.45-12.34,18.47-39.86,30.29-44.11,0,0-29.68,9.59-51.2,53.58Z"/>
    <path class="cls-9" d="m582.97,290.57c-15.17-30.56-36.24-65.28-64.88-98.49,0,0-7.04-9.22-31.48-33.1-24.45-23.89-35.42-26.49-35.42-26.49"/>
    <path class="cls-9" d="m581.76,143.94s-28.24,12.32-47.7,52.11c-4.71,9.64.93,17.27,5.53,23.06"/>
  </g>
  <g>
    <path class="cls-16" d="m839.26,473.78s-23.6,17.42-77.98,4.63c0,0,.14-8.72,19.66-17.11,19.52-8.39,61.41,4.4,58.32,12.48Z"/>
    <path class="cls-9" d="m837.57,472.19s-37.25-12.45-76.05,5.28c0,0-12.57,7.1-19.75,18.37"/>
    <path class="cls-16" d="m760.57,435.46s10.76,3.27,15.44-19.17c4.45-21.31,7.04-42.34-6.46-69.98,0,0-27.86,31.5-24.19,53.23,3.67,21.73,15.22,35.92,15.22,35.92Z"/>
    <path d="m840.56,443.87s8.3,5.68-24.88,6.59c-31.33.86-29.24,2.91-29.24,2.91,0,0,27.55-18.21,54.12-9.5Z"/>
    <path class="cls-16" d="m766.75,450.45s3.72,7.08,21.97,6.65c18.25-.43,40.15-17.82,51.85-13.23,0,0-28.64-12.33-73.82,6.58Z"/>
    <path class="cls-9" d="m718.92,545.8c15.84-30.22,31.58-67.66,41.65-110.34,0,0,3.33-11.11,8.32-44.92,4.99-33.81.65-44.23.65-44.23"/>
    <path class="cls-9" d="m836.96,442.67s-29.36-9.33-70.21,7.79c-9.9,4.15-12.71,10.7-16.89,22.84"/>
  </g>
  <g>
    <path class="cls-18" d="m463.15,272.42c-7.64,0-15.03-2.68-20.9-7.57l-16.27-13.58c-5.86-4.89-12.81-7.5-19.94-7.5h-80.76c-7.33,0-13.27,5.94-13.27,13.27v292.38c0,12.65,10.25,22.9,22.9,22.9h402.59c9.84,0,17.81-7.97,17.81-17.81v-264.27c0-9.84-7.97-17.81-17.81-17.81h-274.35Z"/>
    <path class="cls-4" d="m755.3,555.99s-27.4-51.39-30.14-57.3l-74.88-152.55c-1.88-4.05-5.95-6.65-10.42-6.65h-278.26c-10.12,0-24.75-5.3-32.51-11.78l-11.23-9.37c-5.86-4.89-12.81-7.5-19.94-7.5h-76.86c-8.18,0-13.74,8.31-10.61,15.87l92.94,224.78c5.21,12.6,17.5,20.82,31.13,20.82h415.74c2.71,0,5.21-2.32,5.21-5.03l-.19-11.29Z"/>
    <line class="cls-6" x1="642.12" y1="354" x2="752" y2="567.59"/>
    <path class="cls-6" d="m596.84,390.81h-94.65c-2.58,0-4.98-1.3-6.37-3.44h0c-3.2-4.95.41-11.43,6.37-11.43h94.65c2.58,0,4.98,1.3,6.37,3.44h0c3.2,4.95-.41,11.42-6.37,11.42Z"/>
  </g>
  <g>
    <path class="cls-11" d="m837.23,272.56c1.77-7.64-6.36-17.16-14.06-15.66-6.26,1.22-9.38,2.72-10.39,3.06-1.97.65-16.65-.31-18.33,2.14-1.22,1.77,6.44,3.82,11.34,4.31,1.01.1,1.31,1.42.44,1.95-4.82,2.99-14.4,9.05-15.22,10.55-1.09,2.01-6.07,9.82-4.67,10.69,1.4.87,5.65-3.04,8.4-5.81,2.76-2.77,10.81-5.13,10.81-5.13,0,0-14.01,14.06-15.86,17.96-2.75,5.81,5.23,3.26,5.23,3.26-1.25,3.28,5.29,2.56,6.84,1.32,3.06-2.44,12.5-13.84,12.53-12.68s-9.76,13.58-8.77,16.48c.99,2.9,4.95-.74,7.24-3.8,2.29-3.06,9.01-11.61,9.01-11.61,0,0,7.64-5.58,14.02-15.21.05-.08,1.39-1.74,1.42-1.83Z"/>
    <line class="cls-9" x1="795.29" y1="299.57" x2="808.66" y2="283.64"/>
  </g>
  <path class="cls-15" d="m736.74,227.38l48.09-30c.3-.19.58-.41.85-.65l15.86-16.32c3.45-3.02,8.78-2.32,11.32,1.5l7.77,11.66c1.65,2.47,1.7,5.67.15,8.2l-11.16,18.11c-.82,1.33-2.02,2.37-3.46,2.99-8.98,3.85-43.28,18.33-63.75,24.12-5.08,1.44-10.02-2.7-9.57-7.96l.5-5.93c.2-2.33,1.46-4.44,3.41-5.72Z"/>
  <path d="m847.48,527.14l-2.54,17.27s-47.65,18.3-43.23,18.57c4.42.27,72.89-3.72,72.89-3.72l-4.03-31.36-23.09-.76Z"/>
  <path class="cls-5" d="m860.76,247.59s3.8,36.55,6.64,38.44c2.85,1.9,6.64,2.85,6.64,2.85l-6.17-41.77-7.12.47Z"/>
  <path d="m936,222.47s19.31,39.33,13.71,61.24l-107.06-14.73,2.23-40.86,91.12-5.66Z"/>
  <path class="cls-7" d="m938.94,230.44s-15.13,28.02-44.09,30.26"/>
  <path class="cls-7" d="m914.71,254.72s5.87,18.16,22.89,18.54"/>
  <path d="m842.65,268.98s-28.68,102.11-29.43,134.99l20.96,126.64s19.99,9.94,40.81,1.91c.85-.33-10.56-65.68-11.36-132.98l59.86-125.24-80.84-5.32Z"/>
  <path d="m950.18,279.43l-4.22,123.22,47.15,128.83s-19.73,16.67-44.65,1.5l-51.19-122.67,5.25-89.25-22.31-13.51-3.32-38.66,73.28,10.54Z"/>
  <polygon class="cls-1" points="867.33 256.9 890.05 274.03 922.64 237.65 843.49 248.96 862.86 274.64 867.33 256.9"/>
  <path d="m959.79,525.05l-4.11,14.9s-30.06,32.6-25.63,32.6,53.79-20.18,53.79-20.18l-6.33-31.05-17.72,3.73Z"/>
  <path class="cls-7" d="m932.15,239.9s13,31.96,3.63,166.02c0,0,32.84,72.27,49.86,129.43"/>
  <polyline class="cls-7" points="884.37 310.74 851.6 402.02 865.65 535.35"/>
  <g>
    <g>
      <path class="cls-11" d="m741.45,245.4s.64,3.2-6.44,5.64-11.24,1.67-11.24,1.67c0,0-15.88-18.73-16.58-19.39s.49-7.86,5.19-10.75c2.85-1.75,13.91,1.1,22.17,3.62,5.75,1.75,9.3,7.51,8.33,13.45-.38,2.33-.85,4.49-1.42,5.77Z"/>
      <path class="cls-11" d="m728.42,240.43s-12.98-1.88-18.47-6.41c0,0-8.2-1.65-9.94-.62-1.74,1.03-3.17,2.5-6.94,3.14-3.77.64-2.63-1.87,1.33-5.44,1.13-1.02,4.16-4.68,6.78-5.17,3.53-.67,11.18-3.37,11.18-3.37l15.35,18.35"/>
      <path class="cls-11" d="m723.76,252.7s-5.26,3.3-7.12,3.21c-1.85-.09-3.6-1.19-4.05-4.24,0,0-9.8,1.8-6.7-5.62,0,0-5.92-.96-6.08-4.83,0,0-5.26-2.62-4.11-6.82,1.15-4.2,17.65-3.82,17.65-3.82l17.51,8.89-7.11,13.22Z"/>
      <path class="cls-8" d="m720.04,253.4s5-4.43,4.72-6.21c-.28-1.78-1.22-2.76-2.35-2.42-1.52.46-7.32,4.88-9.82,6.9"/>
      <path class="cls-8" d="m705.9,246.06s13.32-2.08,13.44-4.05c.12-1.97-.81-4.58-3.59-4.02-3.31.66-12.79,2.93-15.93,2.87"/>
      <path class="cls-8" d="m722.41,244.78s2.45-1.52,1.48-3.22c-.97-1.7-2.29-2.29-5.12-1.56"/>
      <path class="cls-8" d="m699.55,235.29s.73-.95,1.76-1.92"/>
    </g>
    <path class="cls-14" d="m706.24,190.46h7.71v70.64c0,2.06-1.67,3.73-3.73,3.73h-.26c-2.06,0-3.73-1.67-3.73-3.73v-70.64h0Z" transform="translate(-20.45 377.19) rotate(-29.34)"/>
    <path class="cls-3" d="m705.62,207.02l2.91,5.17c.79,1.4.43,3.1-.8,3.79l-6.28,3.53c-1.23.69-2.86.11-3.65-1.29l-3.03-5.39"/>
    <path class="cls-14" d="m692.19,156.45c-12.01-22.28-27.07-37.62-36.64-38.34l.32-2.12-5,3.26c-8.59,5.85-4.03,31.99,10.2,58.39,14.23,26.39,32.73,43.05,41.32,37.19l4.7-3.13-1.35-1.81c3.31-10.22-1.85-31.74-13.55-53.44Z"/>
    <ellipse class="cls-12" cx="681.63" cy="163.79" rx="18.71" ry="54.33" transform="translate(1.46 333.53) rotate(-27.52)"/>
    <path class="cls-13" d="m692.44,156.43c11.58,21.48,16.12,42.19,10.15,46.26-5.97,4.07-20.2-10.05-31.78-31.53-11.58-21.48-16.12-42.19-10.15-46.26,5.97-4.07,20.2,10.05,31.78,31.53Z"/>
    <path class="cls-11" d="m728.42,240.43s-12.98-1.88-18.47-6.41c0,0-8.2-1.65-9.94-.62-1.74,1.03-3.17,2.5-6.94,3.14-3.77.64-2.63-1.87,1.33-5.44,1.13-1.02,4.16-4.68,6.78-5.17,3.53-.67,11.18-3.37,11.18-3.37l15.35,18.35"/>
    <path class="cls-8" d="m728.42,240.43s-12.98-1.88-18.47-6.41c0,0-8.2-1.65-9.94-.62-1.74,1.03-3.17,2.5-6.94,3.14"/>
    <path class="cls-14" d="m692.44,156.43c-11.58-21.48-25.81-35.6-31.78-31.53-.47.32-.87.76-1.21,1.28,6.9.42,18.98,13.53,29.05,32.21,10.66,19.78,15.36,38.9,11.37,44.98,1.03.06,1.95-.15,2.73-.68,5.97-4.07,1.42-24.78-10.15-46.26Z"/>
    <path class="cls-1" d="m684.38,148.01c6.16,11.43,8.58,22.44,5.4,24.61-3.18,2.16-10.74-5.35-16.9-16.77s-8.58-22.44-5.4-24.61,10.74,5.35,16.9,16.77Z"/>
  </g>
  <path class="cls-15" d="m914.69,184.79l-9.55-34.08c-3.51-12.51-9.65-24.09-17.77-34.23-14.39-17.97-52.17-16.33-52.17-16.33l-29.07,20.92c-.09.05-.18.1-.27.15-17.12,9.45-20.26,24.02-19.81,46.47l1.06,30.32,19.68-18.79,4.97,6.81c-.02-.2-.04-.38-.06-.56l2.35,3.7-2.29-3.15c.7,6.26,3.96,22.19,19.13,29.63l8.64,13.6-2.29,18.79c81.1,29.49,101.3-28.42,101.3-28.42l-23.83-34.84Z"/>
  <path class="cls-9" d="m802.62,176.08l10.62,12.99s-1.45,20.02,18.72,26.43"/>
  <path class="cls-15" d="m883.22,202.51l-61.73,53.78s12.22,17.11,17.72,17.72l73.95-47.06"/>
  <path class="cls-9" d="m839.83,239.79s33.61-37.89,45.22-43.39"/>
  <path class="cls-9" d="m867.25,161.64s1.6,8.48,12.38,38.27"/>
  <path class="cls-9" d="m847.77,269.13s69.06-44,69.67-56.84c.61-12.83-17.42-72.42-17.42-72.42"/>
  <path class="cls-9" d="m855.33,206.79s16.62,1.57,21.77-13.52"/>
  <path class="cls-9" d="m788.02,195.56s4.58-4.58,9.17.61"/>
  <path class="cls-1" d="m733.64,225.81l9.78-4.58s11.92,12.99,7.64,24.14l-11.92,3.51s5.5-12.22-5.5-23.07Z"/>
  <path class="cls-1" d="m825.39,249.42s12.83,5.5,22,21.31l-9.85,7.56s-12.15-17.42-20.63-20.17l8.48-8.71Z"/>
  <g>
    <path class="cls-1" d="m814.62,98.16l40.49,2.98s1.53,22.27-22.92,41.91l-10.98-10.67-5.98,12.99s-9.29-5.23-10.54-20.23l1.97-18.21,7.96-8.77Z"/>
    <path class="cls-11" d="m835.19,100.14c1.48,1.26,2.18,3.2,1.83,5.11-1.3,7.25-5.23,24.79-13.11,27-9.97,2.79-16.18-16.89-16.18-16.89l4.97-34.38,22.49,19.17Z"/>
    <g>
      <path d="m803.62,108.29l-.12,5.01c-.09.05-1.79,14.83,3.17,15.4,20.76-3.75,22.06-23.43,23.84-42.96,0,0-28.9,18.66-26.89,22.56Z"/>
      <path class="cls-11" d="m769.07,71.43s-5.06,48.2,24.89,56.5c29.95,8.3,37.12-40.54,36.09-57.43-1.03-16.89-8.56-23.17-29.55-23.93-31.05-1.12-31.43,24.86-31.43,24.86Z"/>
      <path d="m795.97,94.72c.09,1.74-.74,3.19-1.84,3.24s-2.07-1.31-2.15-3.04c-.09-1.74.74-3.19,1.84-3.24s2.07,1.31,2.15,3.04Z"/>
      <path class="cls-9" d="m799.26,85.84s-5.54-1.39-10.86-3.17"/>
      <path class="cls-9" d="m776.39,85.86s-3.1,1.64-7.03,3.15"/>
      <path class="cls-9" d="m771.13,95.94s1.87-.6,4.61.85"/>
      <path class="cls-9" d="m809,106.89s-3.19,6.91-9.22,6.78"/>
      <path class="cls-9" d="m780.21,101.49s-1.72,3.91,2.66,5.79"/>
      <path d="m768.72,81.79s.51-14.12,6.76-22.09c0,0,8.6,19.54,45.65,23.53l10.79-2.27s4.42-22.63-11.06-31.54c-15.48-8.91-39.17-3.99-46.79,4.03-12.92,13.58-5.35,28.34-5.35,28.34Z"/>
      <polygon points="813.94 80.65 820.35 93.32 824.89 79.09 813.94 80.65"/>
      <path class="cls-11" d="m836.35,92c-1.85,6.74-7.15,11.19-11.84,9.95-4.69-1.24-7-7.71-5.15-14.45,1.85-6.74,7.15-11.19,11.84-9.95,4.69,1.24,7,7.71,5.15,14.45Z"/>
      <path class="cls-10" d="m831.64,86.14s-5.28-4.54-8.16,3.76c0,0,3.08,3.27,1.14,5.84,0,0,3.04.69,4.54-1.99"/>
      <path class="cls-10" d="m829.35,89.31s-.29-1.84-2.34-3.95"/>
      <path class="cls-1" d="m831.92,101.72c0,2.53-2.05,4.57-4.57,4.57s-4.57-2.05-4.57-4.57,2.05-4.57,4.57-4.57,4.57,2.05,4.57,4.57Z"/>
      <path d="m819.1,55.32s5.63-29.39,18.76-23.77c13.13,5.63,19.07,33.77,6.57,35.96-12.51,2.19-22.2-3.75-22.2-3.75l-3.13-8.44Z"/>
      <path class="cls-9" d="m819.26,63.77s21.73,18.14,28.77,1.41"/>
    </g>
  </g>
  <line class="cls-7" x1="901.39" y1="320.36" x2="876.23" y2="306.16"/>
  <g>
    <path class="cls-17" d="m330.35,133.91c27.18.74,49.68,22.51,51.24,49.66.92,15.96-5.27,30.49-15.68,40.74-1.54,1.51-2.25,3.67-1.89,5.8l3.91,23.14-24.06-14.02c-1.37-.8-2.98-1.09-4.54-.78-5.88,1.19-12.11,1.4-18.53.43-23.77-3.6-42.31-23.28-44.5-47.21-2.92-31.9,22.56-58.62,54.05-57.76Z"/>
    <path d="m326.47,204.97l-.15-12.62c1.84-.45,3.52-1.03,5.04-1.76,1.52-.72,2.85-1.56,4-2.5,1.15-.95,2.1-2,2.88-3.17.77-1.17,1.36-2.43,1.76-3.77.4-1.34.6-2.76.6-4.26,0-2.14-.52-4.16-1.57-6.05-1.04-1.89-2.54-3.42-4.48-4.59-1.94-1.17-4.26-1.76-6.95-1.76-2.89,0-5.56.8-8.03,2.39-2.47,1.59-4.35,4.31-5.64,8.14l-1.34-.9c1.15-3.63,3.06-6.42,5.75-8.37,2.69-1.94,5.75-2.91,9.19-2.91,2.94,0,5.52.62,7.73,1.87,2.22,1.25,3.95,2.93,5.19,5.04,1.24,2.12,1.87,4.49,1.87,7.13,0,1.99-.34,3.86-1.01,5.6-.67,1.74-1.62,3.34-2.84,4.78-1.22,1.45-2.7,2.7-4.45,3.77-1.74,1.07-3.71,1.88-5.9,2.43l-.15,11.5h-1.49Zm-.9,9.41c0-.65.17-1.18.52-1.61.35-.42.82-.64,1.42-.64.7,0,1.19.2,1.49.6.3.4.45.95.45,1.64,0,.6-.16,1.12-.48,1.57-.33.45-.81.67-1.46.67s-1.13-.2-1.46-.6c-.32-.4-.48-.95-.48-1.64Z"/>
  </g>
</svg>