<svg xmlns="http://www.w3.org/2000/svg" viewBox="0 0 142.06 24.48"><defs><style>.cls-1{fill:#5d5d5d;}.cls-2{fill:#61c13a;}</style></defs><title>Asset 9</title><g id="Layer_2" data-name="Layer 2"><g id="Layer_2-2" data-name="Layer 2"><path class="cls-1" d="M34.15,5.68H37v5.18h5.31V5.68h2.88V18.77H42.34V13.52H37v5.25H34.15Z"/><path class="cls-1" d="M52.54,5.58H55.2l5.61,13.19h-3l-1.2-2.94H51.07l-1.2,2.94H46.93Zm3,7.71L53.83,9,52.1,13.29Z"/><path class="cls-1" d="M62.52,5.68h5.35c3.12,0,5,1.85,5,4.56,0,3-2.36,4.6-5.29,4.6H65.4v3.93H62.52Zm5.16,6.6a2,2,0,0,0,2.28-2c0-1.29-.9-2-2.34-2H65.4v4Z"/><path class="cls-1" d="M74.71,5.68h5.35c3.12,0,5,1.85,5,4.56,0,3-2.36,4.6-5.29,4.6H77.59v3.93H74.71Zm5.16,6.6a2,2,0,0,0,2.28-2c0-1.29-.9-2-2.34-2H77.59v4Z"/><path class="cls-1" d="M90.4,13.61l-5-7.93h3.37l3.12,5.26L95,5.68h3.27l-5,7.87v5.22H90.4Z"/><path class="cls-1" d="M103.79,17l1.81-2A3.24,3.24,0,0,0,108,16.28c1.08,0,1.76-.65,1.76-2.17V5.68h3v8.57a4.75,4.75,0,0,1-1.24,3.5,4.67,4.67,0,0,1-3.4,1.22A5.35,5.35,0,0,1,103.79,17Z"/><path class="cls-1" d="M114.77,12.22A7,7,0,1,1,121.71,19,6.77,6.77,0,0,1,114.77,12.22Zm10.9,0a4,4,0,0,0-4-4.11,3.93,3.93,0,0,0-3.93,4.11,4,4,0,0,0,4,4.11A3.93,3.93,0,0,0,125.67,12.22Z"/><path class="cls-1" d="M130.93,5.68H137a4.72,4.72,0,0,1,3.42,1.16,3,3,0,0,1,.9,2.26,3,3,0,0,1-1.72,2.82,3.22,3.22,0,0,1,2.45,3.26c0,2.39-1.95,3.59-4.9,3.59h-6.23ZM136.4,11c1.27,0,2.08-.41,2.08-1.42,0-.86-.67-1.35-1.89-1.35h-2.84V11Zm.77,5.27c1.27,0,2-.45,2-1.46s-.65-1.42-2.13-1.42h-3.33v2.88Z"/><path class="cls-2" d="M20.69,3.72,12.24,0,3.61,3.62,0,12.6,3.72,21l8.38,3.48,9.16-4,3.22-8.63ZM17.64,17.38a9.14,9.14,0,0,1-5.59,2.08,8.16,8.16,0,0,1-5.38-2.09.78.78,0,1,1,1-1.22,6.8,6.8,0,0,0,4.5,1.72,7.64,7.64,0,0,0,4.57-1.74.78.78,0,1,1,.93,1.25Z"/></g></g></svg>