<?xml version="1.0" encoding="UTF-8"?>
<svg id="_Слой_1" data-name="Слой 1" xmlns="http://www.w3.org/2000/svg" viewBox="0 0 38 37">
  <defs>
    <style>
      .cls-1 {
        stroke-linecap: round;
      }

      .cls-1, .cls-2 {
        fill: none;
        stroke: #fff;
      }

      .cls-3 {
        fill: #57bc20;
      }

      .cls-2 {
        stroke-linejoin: round;
      }
    </style>
  </defs>
  <rect class="cls-3" x=".5" y="0" width="37" height="37" rx="6" ry="6"/>
  <path class="cls-1" d="m19.43,14.27c1.37.09,4.11,1.18,4.06,4.83"/>
  <path class="cls-1" d="m19.54,10.1c2.67.07,8.03,2.09,8.07,9.61"/>
  <path class="cls-1" d="m19.86,5.93c3.98.25,11.95,3.41,12.03,14.12"/>
  <path class="cls-2" d="m20.78,26.92s.89-3.37,2.43-2.87c0,0,4.47,1.62,5.85,2.12s.94,2.38.42,3.28-2.18,2.26-5.39,2.1-11.76-.86-16.08-11.1c-2.04-4.83-1.67-10.88-.21-12.88.66-.91,1.85-2.6,5.43-1.87,0,0,1.14.33,1.14,1.74s.04,5.04.04,5.79-.81,1.62-1.72,1.66-1.65,0-1.65,0c0,0,.75,9.88,9.75,12.02Z"/>
</svg>